# R44 candidate. Proof submission: unrestricted strong aperiodicity claimed; external review pending.
v 0 0 0.24
v 0 0.24 0.24
v 0 0.24 0
v 0 0 0
v 0 0 0.26
v 0 0.24 0.26
v 0 0 0.365
v 0 0.24 0.365
v 0 0 0.385
v 0 0.24 0.385
v 0 0 0.615
v 0 0.24 0.615
v 0 0 0.635
v 0 0.24 0.635
v 0 0 0.74
v 0 0.24 0.74
v 0 0 0.76
v 0 0.24 0.76
v 0 0 1
v 0 0.24 1
v 0 0.26 0.24
v 0 0.26 0
v 0 0.26 0.26
v 0 0.26 0.365
v 0 0.26 0.385
v -0.0005 0.25 0.375
v 0 0.26 0.615
v 0 0.26 0.635
v -0.0006 0.25 0.625
v 0 0.26 0.74
v 0 0.26 0.76
v 0 0.26 1
v 0 0.365 0.24
v 0 0.365 0
v 0 0.365 0.26
v 0 0.365 0.365
v 0 0.365 0.385
v 0 0.365 0.615
v 0 0.365 0.635
v 0 0.365 0.74
v 0 0.365 0.76
v 0 0.365 1
v 0 0.385 0.24
v 0 0.385 0
v 0 0.385 0.26
v -0.0001 0.375 0.25
v 0 0.385 0.365
v 0 0.385 0.385
v 0 0.385 0.615
v 0 0.385 0.635
v 0 0.385 0.74
v 0 0.385 0.76
v -0.0002 0.375 0.75
v 0 0.385 1
v 0 0.615 0.24
v 0 0.615 0
v 0 0.615 0.26
v 0 0.615 0.365
v 0 0.615 0.385
v 0 0.615 0.615
v 0 0.615 0.635
v 0 0.615 0.74
v 0 0.615 0.76
v 0 0.615 1
v 0 0.635 0.24
v 0 0.635 0
v 0 0.635 0.26
v -0.0003 0.625 0.25
v 0 0.635 0.365
v 0 0.635 0.385
v 0 0.635 0.615
v 0 0.635 0.635
v 0 0.635 0.74
v 0 0.635 0.76
v -0.0004 0.625 0.75
v 0 0.635 1
v 0 0.74 0.24
v 0 0.74 0
v 0 0.74 0.26
v 0 0.74 0.365
v 0 0.74 0.385
v 0 0.74 0.615
v 0 0.74 0.635
v 0 0.74 0.74
v 0 0.74 0.76
v 0 0.74 1
v 0 0.76 0.24
v 0 0.76 0
v 0 0.76 0.26
v 0 0.76 0.365
v 0 0.76 0.385
v -0.0007 0.75 0.375
v 0 0.76 0.615
v 0 0.76 0.635
v -0.0008 0.75 0.625
v 0 0.76 0.74
v 0 0.76 0.76
v 0 0.76 1
v 0 1 0.24
v 0 1 0
v 0 1 0.26
v 0 1 0.365
v 0 1 0.385
v 0 1 0.615
v 0 1 0.635
v 0 1 0.74
v 0 1 0.76
v 0 1 1
v 0 0 1.24
v 0 0.24 1.24
v 0 0 1.26
v 0 0.24 1.26
v 0 0 1.365
v 0 0.24 1.365
v 0 0 1.385
v 0 0.24 1.385
v 0 0 1.615
v 0 0.24 1.615
v 0 0 1.635
v 0 0.24 1.635
v 0 0 1.74
v 0 0.24 1.74
v 0 0 1.76
v 0 0.24 1.76
v 0 0 2
v 0 0.24 2
v 0 0.26 1.24
v 0 0.26 1.26
v 0 0.26 1.365
v 0 0.26 1.385
v 0.0006 0.25 1.375
v 0 0.26 1.615
v 0 0.26 1.635
v 0.0005 0.25 1.625
v 0 0.26 1.74
v 0 0.26 1.76
v 0 0.26 2
v 0 0.365 1.24
v 0 0.365 1.26
v 0 0.365 1.365
v 0 0.365 1.385
v 0 0.365 1.615
v 0 0.365 1.635
v 0 0.365 1.74
v 0 0.365 1.76
v 0 0.365 2
v 0 0.385 1.24
v 0 0.385 1.26
v 0.0002 0.375 1.25
v 0 0.385 1.365
v 0 0.385 1.385
v 0 0.385 1.615
v 0 0.385 1.635
v 0 0.385 1.74
v 0 0.385 1.76
v 0.0001 0.375 1.75
v 0 0.385 2
v 0 0.615 1.24
v 0 0.615 1.26
v 0 0.615 1.365
v 0 0.615 1.385
v 0 0.615 1.615
v 0 0.615 1.635
v 0 0.615 1.74
v 0 0.615 1.76
v 0 0.615 2
v 0 0.635 1.24
v 0 0.635 1.26
v 0.0004 0.625 1.25
v 0 0.635 1.365
v 0 0.635 1.385
v 0 0.635 1.615
v 0 0.635 1.635
v 0 0.635 1.74
v 0 0.635 1.76
v 0.0003 0.625 1.75
v 0 0.635 2
v 0 0.74 1.24
v 0 0.74 1.26
v 0 0.74 1.365
v 0 0.74 1.385
v 0 0.74 1.615
v 0 0.74 1.635
v 0 0.74 1.74
v 0 0.74 1.76
v 0 0.74 2
v 0 0.76 1.24
v 0 0.76 1.26
v 0 0.76 1.365
v 0 0.76 1.385
v 0.0008 0.75 1.375
v 0 0.76 1.615
v 0 0.76 1.635
v 0.0007 0.75 1.625
v 0 0.76 1.74
v 0 0.76 1.76
v 0 0.76 2
v 0 1 1.24
v 0 1 1.26
v 0 1 1.365
v 0 1 1.385
v 0 1 1.615
v 0 1 1.635
v 0 1 1.74
v 0 1 1.76
v 0 1 2
v 0 1.24 0.24
v 0 1.24 0
v 0 1.24 0.26
v 0 1.24 0.365
v 0 1.24 0.385
v 0 1.24 0.615
v 0 1.24 0.635
v 0 1.24 0.74
v 0 1.24 0.76
v 0 1.24 1
v 0 1.26 0.24
v 0 1.26 0
v 0 1.26 0.26
v 0 1.26 0.365
v 0 1.26 0.385
v -0.0002 1.25 0.375
v 0 1.26 0.615
v 0 1.26 0.635
v -0.0004 1.25 0.625
v 0 1.26 0.74
v 0 1.26 0.76
v 0 1.26 1
v 0 1.365 0.24
v 0 1.365 0
v 0 1.365 0.26
v 0 1.365 0.365
v 0 1.365 0.385
v 0 1.365 0.615
v 0 1.365 0.635
v 0 1.365 0.74
v 0 1.365 0.76
v 0 1.365 1
v 0 1.385 0.24
v 0 1.385 0
v 0 1.385 0.26
v -0.0006 1.375 0.25
v 0 1.385 0.365
v 0 1.385 0.385
v 0 1.385 0.615
v 0 1.385 0.635
v 0 1.385 0.74
v 0 1.385 0.76
v -0.0008 1.375 0.75
v 0 1.385 1
v 0 1.615 0.24
v 0 1.615 0
v 0 1.615 0.26
v 0 1.615 0.365
v 0 1.615 0.385
v 0 1.615 0.615
v 0 1.615 0.635
v 0 1.615 0.74
v 0 1.615 0.76
v 0 1.615 1
v 0 1.635 0.24
v 0 1.635 0
v 0 1.635 0.26
v -0.0005 1.625 0.25
v 0 1.635 0.365
v 0 1.635 0.385
v 0 1.635 0.615
v 0 1.635 0.635
v 0 1.635 0.74
v 0 1.635 0.76
v -0.0007 1.625 0.75
v 0 1.635 1
v 0 1.74 0.24
v 0 1.74 0
v 0 1.74 0.26
v 0 1.74 0.365
v 0 1.74 0.385
v 0 1.74 0.615
v 0 1.74 0.635
v 0 1.74 0.74
v 0 1.74 0.76
v 0 1.74 1
v 0 1.76 0.24
v 0 1.76 0
v 0 1.76 0.26
v 0 1.76 0.365
v 0 1.76 0.385
v -0.0001 1.75 0.375
v 0 1.76 0.615
v 0 1.76 0.635
v -0.0003 1.75 0.625
v 0 1.76 0.74
v 0 1.76 0.76
v 0 1.76 1
v 0 2 0.24
v 0 2 0
v 0 2 0.26
v 0 2 0.365
v 0 2 0.385
v 0 2 0.615
v 0 2 0.635
v 0 2 0.74
v 0 2 0.76
v 0 2 1
v 0 1.24 1.24
v 0 1.24 1.26
v 0 1.24 1.365
v 0 1.24 1.385
v 0 1.24 1.615
v 0 1.24 1.635
v 0 1.24 1.74
v 0 1.24 1.76
v 0 1.24 2
v 0 1.26 1.24
v 0 1.26 1.26
v 0 1.26 1.365
v 0 1.26 1.385
v 0.0009 1.25 1.375
v 0 1.26 1.615
v 0 1.26 1.635
v 0.0011 1.25 1.625
v 0 1.26 1.74
v 0 1.26 1.76
v 0 1.26 2
v 0 1.365 1.24
v 0 1.365 1.26
v 0 1.365 1.365
v 0 1.365 1.385
v 0 1.365 1.615
v 0 1.365 1.635
v 0 1.365 1.74
v 0 1.365 1.76
v 0 1.365 2
v 0 1.385 1.24
v 0 1.385 1.26
v -0.0009 1.375 1.25
v 0 1.385 1.365
v 0 1.385 1.385
v 0 1.385 1.615
v 0 1.385 1.635
v 0 1.385 1.74
v 0 1.385 1.76
v -0.001 1.375 1.75
v 0 1.385 2
v 0 1.615 1.24
v 0 1.615 1.26
v 0 1.615 1.365
v 0 1.615 1.385
v 0 1.615 1.615
v 0 1.615 1.635
v 0 1.615 1.74
v 0 1.615 1.76
v 0 1.615 2
v 0 1.635 1.24
v 0 1.635 1.26
v -0.0011 1.625 1.25
v 0 1.635 1.365
v 0 1.635 1.385
v 0 1.635 1.615
v 0 1.635 1.635
v 0 1.635 1.74
v 0 1.635 1.76
v -0.0012 1.625 1.75
v 0 1.635 2
v 0 1.74 1.24
v 0 1.74 1.26
v 0 1.74 1.365
v 0 1.74 1.385
v 0 1.74 1.615
v 0 1.74 1.635
v 0 1.74 1.74
v 0 1.74 1.76
v 0 1.74 2
v 0 1.76 1.24
v 0 1.76 1.26
v 0 1.76 1.365
v 0 1.76 1.385
v 0.001 1.75 1.375
v 0 1.76 1.615
v 0 1.76 1.635
v 0.0012 1.75 1.625
v 0 1.76 1.74
v 0 1.76 1.76
v 0 1.76 2
v 0 2 1.24
v 0 2 1.26
v 0 2 1.365
v 0 2 1.385
v 0 2 1.615
v 0 2 1.635
v 0 2 1.74
v 0 2 1.76
v 0 2 2
v 1 1 1
v 1 1.24 1
v 1 1.24 1.24
v 1 1 1.24
v 1 1.24 1.26
v 1 1 1.26
v 1 1.24 1.365
v 1 1 1.365
v 1 1.24 1.385
v 1 1 1.385
v 1 1.24 1.615
v 1 1 1.615
v 1 1.24 1.635
v 1 1 1.635
v 1 1.24 1.74
v 1 1 1.74
v 1 1.24 1.76
v 1 1 1.76
v 1 1.24 2
v 1 1 2
v 1 1.26 1
v 1 1.26 1.24
v 1 1.26 1.26
v 1 1.26 1.365
v 0.9995 1.25 1.375
v 1 1.26 1.385
v 1 1.26 1.615
v 0.9994 1.25 1.625
v 1 1.26 1.635
v 1 1.26 1.74
v 1 1.26 1.76
v 1 1.26 2
v 1 1.365 1
v 1 1.365 1.24
v 1 1.365 1.26
v 1 1.365 1.365
v 1 1.365 1.385
v 1 1.365 1.615
v 1 1.365 1.635
v 1 1.365 1.74
v 1 1.365 1.76
v 1 1.365 2
v 1 1.385 1
v 1 1.385 1.24
v 0.9999 1.375 1.25
v 1 1.385 1.26
v 1 1.385 1.365
v 1 1.385 1.385
v 1 1.385 1.615
v 1 1.385 1.635
v 1 1.385 1.74
v 0.9998 1.375 1.75
v 1 1.385 1.76
v 1 1.385 2
v 1 1.615 1
v 1 1.615 1.24
v 1 1.615 1.26
v 1 1.615 1.365
v 1 1.615 1.385
v 1 1.615 1.615
v 1 1.615 1.635
v 1 1.615 1.74
v 1 1.615 1.76
v 1 1.615 2
v 1 1.635 1
v 1 1.635 1.24
v 0.9997 1.625 1.25
v 1 1.635 1.26
v 1 1.635 1.365
v 1 1.635 1.385
v 1 1.635 1.615
v 1 1.635 1.635
v 1 1.635 1.74
v 0.9996 1.625 1.75
v 1 1.635 1.76
v 1 1.635 2
v 1 1.74 1
v 1 1.74 1.24
v 1 1.74 1.26
v 1 1.74 1.365
v 1 1.74 1.385
v 1 1.74 1.615
v 1 1.74 1.635
v 1 1.74 1.74
v 1 1.74 1.76
v 1 1.74 2
v 1 1.76 1
v 1 1.76 1.24
v 1 1.76 1.26
v 1 1.76 1.365
v 0.9993 1.75 1.375
v 1 1.76 1.385
v 1 1.76 1.615
v 0.9992 1.75 1.625
v 1 1.76 1.635
v 1 1.76 1.74
v 1 1.76 1.76
v 1 1.76 2
v 1 2 1
v 1 2 1.24
v 1 2 1.26
v 1 2 1.365
v 1 2 1.385
v 1 2 1.615
v 1 2 1.635
v 1 2 1.74
v 1 2 1.76
v 1 2 2
v 2 0 0
v 2 0.24 0
v 2 0.24 0.24
v 2 0 0.24
v 2 0.24 0.26
v 2 0 0.26
v 2 0.24 0.365
v 2 0 0.365
v 2 0.24 0.385
v 2 0 0.385
v 2 0.24 0.615
v 2 0 0.615
v 2 0.24 0.635
v 2 0 0.635
v 2 0.24 0.74
v 2 0 0.74
v 2 0.24 0.76
v 2 0 0.76
v 2 0.24 1
v 2 0 1
v 2 0.26 0
v 2 0.26 0.24
v 2 0.26 0.26
v 2 0.26 0.365
v 2.0012 0.25 0.375
v 2 0.26 0.385
v 2 0.26 0.615
v 2.001 0.25 0.625
v 2 0.26 0.635
v 2 0.26 0.74
v 2 0.26 0.76
v 2 0.26 1
v 2 0.365 0
v 2 0.365 0.24
v 2 0.365 0.26
v 2 0.365 0.365
v 2 0.365 0.385
v 2 0.365 0.615
v 2 0.365 0.635
v 2 0.365 0.74
v 2 0.365 0.76
v 2 0.365 1
v 2 0.385 0
v 2 0.385 0.24
v 1.9988 0.375 0.25
v 2 0.385 0.26
v 2 0.385 0.365
v 2 0.385 0.385
v 2 0.385 0.615
v 2 0.385 0.635
v 2 0.385 0.74
v 1.9989 0.375 0.75
v 2 0.385 0.76
v 2 0.385 1
v 2 0.615 0
v 2 0.615 0.24
v 2 0.615 0.26
v 2 0.615 0.365
v 2 0.615 0.385
v 2 0.615 0.615
v 2 0.615 0.635
v 2 0.615 0.74
v 2 0.615 0.76
v 2 0.615 1
v 2 0.635 0
v 2 0.635 0.24
v 1.999 0.625 0.25
v 2 0.635 0.26
v 2 0.635 0.365
v 2 0.635 0.385
v 2 0.635 0.615
v 2 0.635 0.635
v 2 0.635 0.74
v 1.9991 0.625 0.75
v 2 0.635 0.76
v 2 0.635 1
v 2 0.74 0
v 2 0.74 0.24
v 2 0.74 0.26
v 2 0.74 0.365
v 2 0.74 0.385
v 2 0.74 0.615
v 2 0.74 0.635
v 2 0.74 0.74
v 2 0.74 0.76
v 2 0.74 1
v 2 0.76 0
v 2 0.76 0.24
v 2 0.76 0.26
v 2 0.76 0.365
v 2.0011 0.75 0.375
v 2 0.76 0.385
v 2 0.76 0.615
v 2.0009 0.75 0.625
v 2 0.76 0.635
v 2 0.76 0.74
v 2 0.76 0.76
v 2 0.76 1
v 2 1 0
v 2 1 0.24
v 2 1 0.26
v 2 1 0.365
v 2 1 0.385
v 2 1 0.615
v 2 1 0.635
v 2 1 0.74
v 2 1 0.76
v 2 1 1
v 2 0.24 1.24
v 2 0 1.24
v 2 0.24 1.26
v 2 0 1.26
v 2 0.24 1.365
v 2 0 1.365
v 2 0.24 1.385
v 2 0 1.385
v 2 0.24 1.615
v 2 0 1.615
v 2 0.24 1.635
v 2 0 1.635
v 2 0.24 1.74
v 2 0 1.74
v 2 0.24 1.76
v 2 0 1.76
v 2 0.24 2
v 2 0 2
v 2 0.26 1.24
v 2 0.26 1.26
v 2 0.26 1.365
v 1.9997 0.25 1.375
v 2 0.26 1.385
v 2 0.26 1.615
v 1.9999 0.25 1.625
v 2 0.26 1.635
v 2 0.26 1.74
v 2 0.26 1.76
v 2 0.26 2
v 2 0.365 1.24
v 2 0.365 1.26
v 2 0.365 1.365
v 2 0.365 1.385
v 2 0.365 1.615
v 2 0.365 1.635
v 2 0.365 1.74
v 2 0.365 1.76
v 2 0.365 2
v 2 0.385 1.24
v 1.9993 0.375 1.25
v 2 0.385 1.26
v 2 0.385 1.365
v 2 0.385 1.385
v 2 0.385 1.615
v 2 0.385 1.635
v 2 0.385 1.74
v 1.9995 0.375 1.75
v 2 0.385 1.76
v 2 0.385 2
v 2 0.615 1.24
v 2 0.615 1.26
v 2 0.615 1.365
v 2 0.615 1.385
v 2 0.615 1.615
v 2 0.615 1.635
v 2 0.615 1.74
v 2 0.615 1.76
v 2 0.615 2
v 2 0.635 1.24
v 1.9992 0.625 1.25
v 2 0.635 1.26
v 2 0.635 1.365
v 2 0.635 1.385
v 2 0.635 1.615
v 2 0.635 1.635
v 2 0.635 1.74
v 1.9994 0.625 1.75
v 2 0.635 1.76
v 2 0.635 2
v 2 0.74 1.24
v 2 0.74 1.26
v 2 0.74 1.365
v 2 0.74 1.385
v 2 0.74 1.615
v 2 0.74 1.635
v 2 0.74 1.74
v 2 0.74 1.76
v 2 0.74 2
v 2 0.76 1.24
v 2 0.76 1.26
v 2 0.76 1.365
v 1.9996 0.75 1.375
v 2 0.76 1.385
v 2 0.76 1.615
v 1.9998 0.75 1.625
v 2 0.76 1.635
v 2 0.76 1.74
v 2 0.76 1.76
v 2 0.76 2
v 2 1 1.24
v 2 1 1.26
v 2 1 1.365
v 2 1 1.385
v 2 1 1.615
v 2 1 1.635
v 2 1 1.74
v 2 1 1.76
v 2 1 2
v 2 1.24 0
v 2 1.24 0.24
v 2 1.24 0.26
v 2 1.24 0.365
v 2 1.24 0.385
v 2 1.24 0.615
v 2 1.24 0.635
v 2 1.24 0.74
v 2 1.24 0.76
v 2 1.24 1
v 2 1.26 0
v 2 1.26 0.24
v 2 1.26 0.26
v 2 1.26 0.365
v 2.0007 1.25 0.375
v 2 1.26 0.385
v 2 1.26 0.615
v 2.0008 1.25 0.625
v 2 1.26 0.635
v 2 1.26 0.74
v 2 1.26 0.76
v 2 1.26 1
v 2 1.365 0
v 2 1.365 0.24
v 2 1.365 0.26
v 2 1.365 0.365
v 2 1.365 0.385
v 2 1.365 0.615
v 2 1.365 0.635
v 2 1.365 0.74
v 2 1.365 0.76
v 2 1.365 1
v 2 1.385 0
v 2 1.385 0.24
v 2.0003 1.375 0.25
v 2 1.385 0.26
v 2 1.385 0.365
v 2 1.385 0.385
v 2 1.385 0.615
v 2 1.385 0.635
v 2 1.385 0.74
v 2.0004 1.375 0.75
v 2 1.385 0.76
v 2 1.385 1
v 2 1.615 0
v 2 1.615 0.24
v 2 1.615 0.26
v 2 1.615 0.365
v 2 1.615 0.385
v 2 1.615 0.615
v 2 1.615 0.635
v 2 1.615 0.74
v 2 1.615 0.76
v 2 1.615 1
v 2 1.635 0
v 2 1.635 0.24
v 2.0001 1.625 0.25
v 2 1.635 0.26
v 2 1.635 0.365
v 2 1.635 0.385
v 2 1.635 0.615
v 2 1.635 0.635
v 2 1.635 0.74
v 2.0002 1.625 0.75
v 2 1.635 0.76
v 2 1.635 1
v 2 1.74 0
v 2 1.74 0.24
v 2 1.74 0.26
v 2 1.74 0.365
v 2 1.74 0.385
v 2 1.74 0.615
v 2 1.74 0.635
v 2 1.74 0.74
v 2 1.74 0.76
v 2 1.74 1
v 2 1.76 0
v 2 1.76 0.24
v 2 1.76 0.26
v 2 1.76 0.365
v 2.0005 1.75 0.375
v 2 1.76 0.385
v 2 1.76 0.615
v 2.0006 1.75 0.625
v 2 1.76 0.635
v 2 1.76 0.74
v 2 1.76 0.76
v 2 1.76 1
v 2 2 0
v 2 2 0.24
v 2 2 0.26
v 2 2 0.365
v 2 2 0.385
v 2 2 0.615
v 2 2 0.635
v 2 2 0.74
v 2 2 0.76
v 2 2 1
v 0.24 0 0
v 0.24 0 0.24
v 0.24 0 0.26
v 0.24 0 0.365
v 0.24 0 0.385
v 0.24 0 0.615
v 0.24 0 0.635
v 0.24 0 0.74
v 0.24 0 0.76
v 0.24 0 1
v 0.26 0 0
v 0.26 0 0.24
v 0.26 0 0.26
v 0.26 0 0.365
v 0.25 0.0005 0.375
v 0.26 0 0.385
v 0.26 0 0.615
v 0.25 0.0006 0.625
v 0.26 0 0.635
v 0.26 0 0.74
v 0.26 0 0.76
v 0.26 0 1
v 0.365 0 0
v 0.365 0 0.24
v 0.365 0 0.26
v 0.365 0 0.365
v 0.365 0 0.385
v 0.365 0 0.615
v 0.365 0 0.635
v 0.365 0 0.74
v 0.365 0 0.76
v 0.365 0 1
v 0.385 0 0
v 0.385 0 0.24
v 0.375 0.0001 0.25
v 0.385 0 0.26
v 0.385 0 0.365
v 0.385 0 0.385
v 0.385 0 0.615
v 0.385 0 0.635
v 0.385 0 0.74
v 0.375 0.0002 0.75
v 0.385 0 0.76
v 0.385 0 1
v 0.615 0 0
v 0.615 0 0.24
v 0.615 0 0.26
v 0.615 0 0.365
v 0.615 0 0.385
v 0.615 0 0.615
v 0.615 0 0.635
v 0.615 0 0.74
v 0.615 0 0.76
v 0.615 0 1
v 0.635 0 0
v 0.635 0 0.24
v 0.625 0.0003 0.25
v 0.635 0 0.26
v 0.635 0 0.365
v 0.635 0 0.385
v 0.635 0 0.615
v 0.635 0 0.635
v 0.635 0 0.74
v 0.625 0.0004 0.75
v 0.635 0 0.76
v 0.635 0 1
v 0.74 0 0
v 0.74 0 0.24
v 0.74 0 0.26
v 0.74 0 0.365
v 0.74 0 0.385
v 0.74 0 0.615
v 0.74 0 0.635
v 0.74 0 0.74
v 0.74 0 0.76
v 0.74 0 1
v 0.76 0 0
v 0.76 0 0.24
v 0.76 0 0.26
v 0.76 0 0.365
v 0.75 0.0007 0.375
v 0.76 0 0.385
v 0.76 0 0.615
v 0.75 0.0008 0.625
v 0.76 0 0.635
v 0.76 0 0.74
v 0.76 0 0.76
v 0.76 0 1
v 1 0 0
v 1 0 0.24
v 1 0 0.26
v 1 0 0.365
v 1 0 0.385
v 1 0 0.615
v 1 0 0.635
v 1 0 0.74
v 1 0 0.76
v 1 0 1
v 0.24 0 1.24
v 0.24 0 1.26
v 0.24 0 1.365
v 0.24 0 1.385
v 0.24 0 1.615
v 0.24 0 1.635
v 0.24 0 1.74
v 0.24 0 1.76
v 0.24 0 2
v 0.26 0 1.24
v 0.26 0 1.26
v 0.26 0 1.365
v 0.25 -0.0006 1.375
v 0.26 0 1.385
v 0.26 0 1.615
v 0.25 -0.0005 1.625
v 0.26 0 1.635
v 0.26 0 1.74
v 0.26 0 1.76
v 0.26 0 2
v 0.365 0 1.24
v 0.365 0 1.26
v 0.365 0 1.365
v 0.365 0 1.385
v 0.365 0 1.615
v 0.365 0 1.635
v 0.365 0 1.74
v 0.365 0 1.76
v 0.365 0 2
v 0.385 0 1.24
v 0.375 -0.0002 1.25
v 0.385 0 1.26
v 0.385 0 1.365
v 0.385 0 1.385
v 0.385 0 1.615
v 0.385 0 1.635
v 0.385 0 1.74
v 0.375 -0.0001 1.75
v 0.385 0 1.76
v 0.385 0 2
v 0.615 0 1.24
v 0.615 0 1.26
v 0.615 0 1.365
v 0.615 0 1.385
v 0.615 0 1.615
v 0.615 0 1.635
v 0.615 0 1.74
v 0.615 0 1.76
v 0.615 0 2
v 0.635 0 1.24
v 0.625 -0.0004 1.25
v 0.635 0 1.26
v 0.635 0 1.365
v 0.635 0 1.385
v 0.635 0 1.615
v 0.635 0 1.635
v 0.635 0 1.74
v 0.625 -0.0003 1.75
v 0.635 0 1.76
v 0.635 0 2
v 0.74 0 1.24
v 0.74 0 1.26
v 0.74 0 1.365
v 0.74 0 1.385
v 0.74 0 1.615
v 0.74 0 1.635
v 0.74 0 1.74
v 0.74 0 1.76
v 0.74 0 2
v 0.76 0 1.24
v 0.76 0 1.26
v 0.76 0 1.365
v 0.75 -0.0008 1.375
v 0.76 0 1.385
v 0.76 0 1.615
v 0.75 -0.0007 1.625
v 0.76 0 1.635
v 0.76 0 1.74
v 0.76 0 1.76
v 0.76 0 2
v 1 0 1.24
v 1 0 1.26
v 1 0 1.365
v 1 0 1.385
v 1 0 1.615
v 1 0 1.635
v 1 0 1.74
v 1 0 1.76
v 1 0 2
v 0.24 2 0.24
v 0.24 2 0
v 0.24 2 0.26
v 0.24 2 0.365
v 0.24 2 0.385
v 0.24 2 0.615
v 0.24 2 0.635
v 0.24 2 0.74
v 0.24 2 0.76
v 0.24 2 1
v 0.26 2 0.24
v 0.26 2 0
v 0.26 2 0.26
v 0.26 2 0.365
v 0.26 2 0.385
v 0.25 1.9988 0.375
v 0.26 2 0.615
v 0.26 2 0.635
v 0.25 1.999 0.625
v 0.26 2 0.74
v 0.26 2 0.76
v 0.26 2 1
v 0.365 2 0.24
v 0.365 2 0
v 0.365 2 0.26
v 0.365 2 0.365
v 0.365 2 0.385
v 0.365 2 0.615
v 0.365 2 0.635
v 0.365 2 0.74
v 0.365 2 0.76
v 0.365 2 1
v 0.385 2 0.24
v 0.385 2 0
v 0.385 2 0.26
v 0.375 2.0012 0.25
v 0.385 2 0.365
v 0.385 2 0.385
v 0.385 2 0.615
v 0.385 2 0.635
v 0.385 2 0.74
v 0.385 2 0.76
v 0.375 2.0011 0.75
v 0.385 2 1
v 0.615 2 0.24
v 0.615 2 0
v 0.615 2 0.26
v 0.615 2 0.365
v 0.615 2 0.385
v 0.615 2 0.615
v 0.615 2 0.635
v 0.615 2 0.74
v 0.615 2 0.76
v 0.615 2 1
v 0.635 2 0.24
v 0.635 2 0
v 0.635 2 0.26
v 0.625 2.001 0.25
v 0.635 2 0.365
v 0.635 2 0.385
v 0.635 2 0.615
v 0.635 2 0.635
v 0.635 2 0.74
v 0.635 2 0.76
v 0.625 2.0009 0.75
v 0.635 2 1
v 0.74 2 0.24
v 0.74 2 0
v 0.74 2 0.26
v 0.74 2 0.365
v 0.74 2 0.385
v 0.74 2 0.615
v 0.74 2 0.635
v 0.74 2 0.74
v 0.74 2 0.76
v 0.74 2 1
v 0.76 2 0.24
v 0.76 2 0
v 0.76 2 0.26
v 0.76 2 0.365
v 0.76 2 0.385
v 0.75 1.9989 0.375
v 0.76 2 0.615
v 0.76 2 0.635
v 0.75 1.9991 0.625
v 0.76 2 0.74
v 0.76 2 0.76
v 0.76 2 1
v 1 2 0.24
v 1 2 0
v 1 2 0.26
v 1 2 0.365
v 1 2 0.385
v 1 2 0.615
v 1 2 0.635
v 1 2 0.74
v 1 2 0.76
v 0.24 2 1.24
v 0.24 2 1.26
v 0.24 2 1.365
v 0.24 2 1.385
v 0.24 2 1.615
v 0.24 2 1.635
v 0.24 2 1.74
v 0.24 2 1.76
v 0.24 2 2
v 0.26 2 1.24
v 0.26 2 1.26
v 0.26 2 1.365
v 0.26 2 1.385
v 0.25 2.0003 1.375
v 0.26 2 1.615
v 0.26 2 1.635
v 0.25 2.0001 1.625
v 0.26 2 1.74
v 0.26 2 1.76
v 0.26 2 2
v 0.365 2 1.24
v 0.365 2 1.26
v 0.365 2 1.365
v 0.365 2 1.385
v 0.365 2 1.615
v 0.365 2 1.635
v 0.365 2 1.74
v 0.365 2 1.76
v 0.365 2 2
v 0.385 2 1.24
v 0.385 2 1.26
v 0.375 2.0007 1.25
v 0.385 2 1.365
v 0.385 2 1.385
v 0.385 2 1.615
v 0.385 2 1.635
v 0.385 2 1.74
v 0.385 2 1.76
v 0.375 2.0005 1.75
v 0.385 2 2
v 0.615 2 1.24
v 0.615 2 1.26
v 0.615 2 1.365
v 0.615 2 1.385
v 0.615 2 1.615
v 0.615 2 1.635
v 0.615 2 1.74
v 0.615 2 1.76
v 0.615 2 2
v 0.635 2 1.24
v 0.635 2 1.26
v 0.625 2.0008 1.25
v 0.635 2 1.365
v 0.635 2 1.385
v 0.635 2 1.615
v 0.635 2 1.635
v 0.635 2 1.74
v 0.635 2 1.76
v 0.625 2.0006 1.75
v 0.635 2 2
v 0.74 2 1.24
v 0.74 2 1.26
v 0.74 2 1.365
v 0.74 2 1.385
v 0.74 2 1.615
v 0.74 2 1.635
v 0.74 2 1.74
v 0.74 2 1.76
v 0.74 2 2
v 0.76 2 1.24
v 0.76 2 1.26
v 0.76 2 1.365
v 0.76 2 1.385
v 0.75 2.0004 1.375
v 0.76 2 1.615
v 0.76 2 1.635
v 0.75 2.0002 1.625
v 0.76 2 1.74
v 0.76 2 1.76
v 0.76 2 2
v 1.24 0 0
v 1.24 0 0.24
v 1.24 0 0.26
v 1.24 0 0.365
v 1.24 0 0.385
v 1.24 0 0.615
v 1.24 0 0.635
v 1.24 0 0.74
v 1.24 0 0.76
v 1.24 0 1
v 1.26 0 0
v 1.26 0 0.24
v 1.26 0 0.26
v 1.26 0 0.365
v 1.25 0.0002 0.375
v 1.26 0 0.385
v 1.26 0 0.615
v 1.25 0.0004 0.625
v 1.26 0 0.635
v 1.26 0 0.74
v 1.26 0 0.76
v 1.26 0 1
v 1.365 0 0
v 1.365 0 0.24
v 1.365 0 0.26
v 1.365 0 0.365
v 1.365 0 0.385
v 1.365 0 0.615
v 1.365 0 0.635
v 1.365 0 0.74
v 1.365 0 0.76
v 1.365 0 1
v 1.385 0 0
v 1.385 0 0.24
v 1.375 0.0006 0.25
v 1.385 0 0.26
v 1.385 0 0.365
v 1.385 0 0.385
v 1.385 0 0.615
v 1.385 0 0.635
v 1.385 0 0.74
v 1.375 0.0008 0.75
v 1.385 0 0.76
v 1.385 0 1
v 1.615 0 0
v 1.615 0 0.24
v 1.615 0 0.26
v 1.615 0 0.365
v 1.615 0 0.385
v 1.615 0 0.615
v 1.615 0 0.635
v 1.615 0 0.74
v 1.615 0 0.76
v 1.615 0 1
v 1.635 0 0
v 1.635 0 0.24
v 1.625 0.0005 0.25
v 1.635 0 0.26
v 1.635 0 0.365
v 1.635 0 0.385
v 1.635 0 0.615
v 1.635 0 0.635
v 1.635 0 0.74
v 1.625 0.0007 0.75
v 1.635 0 0.76
v 1.635 0 1
v 1.74 0 0
v 1.74 0 0.24
v 1.74 0 0.26
v 1.74 0 0.365
v 1.74 0 0.385
v 1.74 0 0.615
v 1.74 0 0.635
v 1.74 0 0.74
v 1.74 0 0.76
v 1.74 0 1
v 1.76 0 0
v 1.76 0 0.24
v 1.76 0 0.26
v 1.76 0 0.365
v 1.75 0.0001 0.375
v 1.76 0 0.385
v 1.76 0 0.615
v 1.75 0.0003 0.625
v 1.76 0 0.635
v 1.76 0 0.74
v 1.76 0 0.76
v 1.76 0 1
v 1.24 0 1.24
v 1.24 0 1.26
v 1.24 0 1.365
v 1.24 0 1.385
v 1.24 0 1.615
v 1.24 0 1.635
v 1.24 0 1.74
v 1.24 0 1.76
v 1.24 0 2
v 1.26 0 1.24
v 1.26 0 1.26
v 1.26 0 1.365
v 1.25 -0.0009 1.375
v 1.26 0 1.385
v 1.26 0 1.615
v 1.25 -0.0011 1.625
v 1.26 0 1.635
v 1.26 0 1.74
v 1.26 0 1.76
v 1.26 0 2
v 1.365 0 1.24
v 1.365 0 1.26
v 1.365 0 1.365
v 1.365 0 1.385
v 1.365 0 1.615
v 1.365 0 1.635
v 1.365 0 1.74
v 1.365 0 1.76
v 1.365 0 2
v 1.385 0 1.24
v 1.375 0.0009 1.25
v 1.385 0 1.26
v 1.385 0 1.365
v 1.385 0 1.385
v 1.385 0 1.615
v 1.385 0 1.635
v 1.385 0 1.74
v 1.375 0.001 1.75
v 1.385 0 1.76
v 1.385 0 2
v 1.615 0 1.24
v 1.615 0 1.26
v 1.615 0 1.365
v 1.615 0 1.385
v 1.615 0 1.615
v 1.615 0 1.635
v 1.615 0 1.74
v 1.615 0 1.76
v 1.615 0 2
v 1.635 0 1.24
v 1.625 0.0011 1.25
v 1.635 0 1.26
v 1.635 0 1.365
v 1.635 0 1.385
v 1.635 0 1.615
v 1.635 0 1.635
v 1.635 0 1.74
v 1.625 0.0012 1.75
v 1.635 0 1.76
v 1.635 0 2
v 1.74 0 1.24
v 1.74 0 1.26
v 1.74 0 1.365
v 1.74 0 1.385
v 1.74 0 1.615
v 1.74 0 1.635
v 1.74 0 1.74
v 1.74 0 1.76
v 1.74 0 2
v 1.76 0 1.24
v 1.76 0 1.26
v 1.76 0 1.365
v 1.75 -0.001 1.375
v 1.76 0 1.385
v 1.76 0 1.615
v 1.75 -0.0012 1.625
v 1.76 0 1.635
v 1.76 0 1.74
v 1.76 0 1.76
v 1.76 0 2
v 1.24 1 1.24
v 1.24 1 1
v 1.24 1 1.26
v 1.24 1 1.365
v 1.24 1 1.385
v 1.24 1 1.615
v 1.24 1 1.635
v 1.24 1 1.74
v 1.24 1 1.76
v 1.24 1 2
v 1.26 1 1.24
v 1.26 1 1
v 1.26 1 1.26
v 1.26 1 1.365
v 1.26 1 1.385
v 1.25 1.0005 1.375
v 1.26 1 1.615
v 1.26 1 1.635
v 1.25 1.0006 1.625
v 1.26 1 1.74
v 1.26 1 1.76
v 1.26 1 2
v 1.365 1 1.24
v 1.365 1 1
v 1.365 1 1.26
v 1.365 1 1.365
v 1.365 1 1.385
v 1.365 1 1.615
v 1.365 1 1.635
v 1.365 1 1.74
v 1.365 1 1.76
v 1.365 1 2
v 1.385 1 1.24
v 1.385 1 1
v 1.385 1 1.26
v 1.375 1.0001 1.25
v 1.385 1 1.365
v 1.385 1 1.385
v 1.385 1 1.615
v 1.385 1 1.635
v 1.385 1 1.74
v 1.385 1 1.76
v 1.375 1.0002 1.75
v 1.385 1 2
v 1.615 1 1.24
v 1.615 1 1
v 1.615 1 1.26
v 1.615 1 1.365
v 1.615 1 1.385
v 1.615 1 1.615
v 1.615 1 1.635
v 1.615 1 1.74
v 1.615 1 1.76
v 1.615 1 2
v 1.635 1 1.24
v 1.635 1 1
v 1.635 1 1.26
v 1.625 1.0003 1.25
v 1.635 1 1.365
v 1.635 1 1.385
v 1.635 1 1.615
v 1.635 1 1.635
v 1.635 1 1.74
v 1.635 1 1.76
v 1.625 1.0004 1.75
v 1.635 1 2
v 1.74 1 1.24
v 1.74 1 1
v 1.74 1 1.26
v 1.74 1 1.365
v 1.74 1 1.385
v 1.74 1 1.615
v 1.74 1 1.635
v 1.74 1 1.74
v 1.74 1 1.76
v 1.74 1 2
v 1.76 1 1.24
v 1.76 1 1
v 1.76 1 1.26
v 1.76 1 1.365
v 1.76 1 1.385
v 1.75 1.0007 1.375
v 1.76 1 1.615
v 1.76 1 1.635
v 1.75 1.0008 1.625
v 1.76 1 1.74
v 1.76 1 1.76
v 1.76 1 2
v 1.24 2 0.24
v 1.24 2 0
v 1.24 2 0.26
v 1.24 2 0.365
v 1.24 2 0.385
v 1.24 2 0.615
v 1.24 2 0.635
v 1.24 2 0.74
v 1.24 2 0.76
v 1.24 2 1
v 1.26 2 0.24
v 1.26 2 0
v 1.26 2 0.26
v 1.26 2 0.365
v 1.26 2 0.385
v 1.25 1.9993 0.375
v 1.26 2 0.615
v 1.26 2 0.635
v 1.25 1.9992 0.625
v 1.26 2 0.74
v 1.26 2 0.76
v 1.26 2 1
v 1.365 2 0.24
v 1.365 2 0
v 1.365 2 0.26
v 1.365 2 0.365
v 1.365 2 0.385
v 1.365 2 0.615
v 1.365 2 0.635
v 1.365 2 0.74
v 1.365 2 0.76
v 1.365 2 1
v 1.385 2 0.24
v 1.385 2 0
v 1.385 2 0.26
v 1.375 1.9997 0.25
v 1.385 2 0.365
v 1.385 2 0.385
v 1.385 2 0.615
v 1.385 2 0.635
v 1.385 2 0.74
v 1.385 2 0.76
v 1.375 1.9996 0.75
v 1.385 2 1
v 1.615 2 0.24
v 1.615 2 0
v 1.615 2 0.26
v 1.615 2 0.365
v 1.615 2 0.385
v 1.615 2 0.615
v 1.615 2 0.635
v 1.615 2 0.74
v 1.615 2 0.76
v 1.615 2 1
v 1.635 2 0.24
v 1.635 2 0
v 1.635 2 0.26
v 1.625 1.9999 0.25
v 1.635 2 0.365
v 1.635 2 0.385
v 1.635 2 0.615
v 1.635 2 0.635
v 1.635 2 0.74
v 1.635 2 0.76
v 1.625 1.9998 0.75
v 1.635 2 1
v 1.74 2 0.24
v 1.74 2 0
v 1.74 2 0.26
v 1.74 2 0.365
v 1.74 2 0.385
v 1.74 2 0.615
v 1.74 2 0.635
v 1.74 2 0.74
v 1.74 2 0.76
v 1.74 2 1
v 1.76 2 0.24
v 1.76 2 0
v 1.76 2 0.26
v 1.76 2 0.365
v 1.76 2 0.385
v 1.75 1.9995 0.375
v 1.76 2 0.615
v 1.76 2 0.635
v 1.75 1.9994 0.625
v 1.76 2 0.74
v 1.76 2 0.76
v 1.76 2 1
v 0.24 0.24 0
v 0.24 0.26 0
v 0.24 0.365 0
v 0.24 0.385 0
v 0.24 0.615 0
v 0.24 0.635 0
v 0.24 0.74 0
v 0.24 0.76 0
v 0.24 1 0
v 0.26 0.24 0
v 0.26 0.26 0
v 0.26 0.365 0
v 0.26 0.385 0
v 0.25 0.375 0.0012
v 0.26 0.615 0
v 0.26 0.635 0
v 0.25 0.625 0.001
v 0.26 0.74 0
v 0.26 0.76 0
v 0.26 1 0
v 0.365 0.24 0
v 0.365 0.26 0
v 0.365 0.365 0
v 0.365 0.385 0
v 0.365 0.615 0
v 0.365 0.635 0
v 0.365 0.74 0
v 0.365 0.76 0
v 0.365 1 0
v 0.385 0.24 0
v 0.385 0.26 0
v 0.375 0.25 -0.0012
v 0.385 0.365 0
v 0.385 0.385 0
v 0.385 0.615 0
v 0.385 0.635 0
v 0.385 0.74 0
v 0.385 0.76 0
v 0.375 0.75 -0.0011
v 0.385 1 0
v 0.615 0.24 0
v 0.615 0.26 0
v 0.615 0.365 0
v 0.615 0.385 0
v 0.615 0.615 0
v 0.615 0.635 0
v 0.615 0.74 0
v 0.615 0.76 0
v 0.615 1 0
v 0.635 0.24 0
v 0.635 0.26 0
v 0.625 0.25 -0.001
v 0.635 0.365 0
v 0.635 0.385 0
v 0.635 0.615 0
v 0.635 0.635 0
v 0.635 0.74 0
v 0.635 0.76 0
v 0.625 0.75 -0.0009
v 0.635 1 0
v 0.74 0.24 0
v 0.74 0.26 0
v 0.74 0.365 0
v 0.74 0.385 0
v 0.74 0.615 0
v 0.74 0.635 0
v 0.74 0.74 0
v 0.74 0.76 0
v 0.74 1 0
v 0.76 0.24 0
v 0.76 0.26 0
v 0.76 0.365 0
v 0.76 0.385 0
v 0.75 0.375 0.0011
v 0.76 0.615 0
v 0.76 0.635 0
v 0.75 0.625 0.0009
v 0.76 0.74 0
v 0.76 0.76 0
v 0.76 1 0
v 1 0.24 0
v 1 0.26 0
v 1 0.365 0
v 1 0.385 0
v 1 0.615 0
v 1 0.635 0
v 1 0.74 0
v 1 0.76 0
v 1 1 0
v 0.24 0.24 2
v 0.24 0.26 2
v 0.24 0.365 2
v 0.24 0.385 2
v 0.24 0.615 2
v 0.24 0.635 2
v 0.24 0.74 2
v 0.24 0.76 2
v 0.24 1 2
v 0.26 0.24 2
v 0.26 0.26 2
v 0.26 0.365 2
v 0.25 0.375 2.0012
v 0.26 0.385 2
v 0.26 0.615 2
v 0.25 0.625 2.001
v 0.26 0.635 2
v 0.26 0.74 2
v 0.26 0.76 2
v 0.26 1 2
v 0.365 0.24 2
v 0.365 0.26 2
v 0.365 0.365 2
v 0.365 0.385 2
v 0.365 0.615 2
v 0.365 0.635 2
v 0.365 0.74 2
v 0.365 0.76 2
v 0.365 1 2
v 0.385 0.24 2
v 0.375 0.25 1.9988
v 0.385 0.26 2
v 0.385 0.365 2
v 0.385 0.385 2
v 0.385 0.615 2
v 0.385 0.635 2
v 0.385 0.74 2
v 0.375 0.75 1.9989
v 0.385 0.76 2
v 0.385 1 2
v 0.615 0.24 2
v 0.615 0.26 2
v 0.615 0.365 2
v 0.615 0.385 2
v 0.615 0.615 2
v 0.615 0.635 2
v 0.615 0.74 2
v 0.615 0.76 2
v 0.615 1 2
v 0.635 0.24 2
v 0.625 0.25 1.999
v 0.635 0.26 2
v 0.635 0.365 2
v 0.635 0.385 2
v 0.635 0.615 2
v 0.635 0.635 2
v 0.635 0.74 2
v 0.625 0.75 1.9991
v 0.635 0.76 2
v 0.635 1 2
v 0.74 0.24 2
v 0.74 0.26 2
v 0.74 0.365 2
v 0.74 0.385 2
v 0.74 0.615 2
v 0.74 0.635 2
v 0.74 0.74 2
v 0.74 0.76 2
v 0.74 1 2
v 0.76 0.24 2
v 0.76 0.26 2
v 0.76 0.365 2
v 0.75 0.375 2.0011
v 0.76 0.385 2
v 0.76 0.615 2
v 0.75 0.625 2.0009
v 0.76 0.635 2
v 0.76 0.74 2
v 0.76 0.76 2
v 0.76 1 2
v 1 0.24 2
v 1 0.26 2
v 1 0.365 2
v 1 0.385 2
v 1 0.615 2
v 1 0.635 2
v 1 0.74 2
v 1 0.76 2
v 0.24 1.24 0
v 0.24 1.26 0
v 0.24 1.365 0
v 0.24 1.385 0
v 0.24 1.615 0
v 0.24 1.635 0
v 0.24 1.74 0
v 0.24 1.76 0
v 0.26 1.24 0
v 0.26 1.26 0
v 0.26 1.365 0
v 0.26 1.385 0
v 0.25 1.375 0.0006
v 0.26 1.615 0
v 0.26 1.635 0
v 0.25 1.625 0.0005
v 0.26 1.74 0
v 0.26 1.76 0
v 0.365 1.24 0
v 0.365 1.26 0
v 0.365 1.365 0
v 0.365 1.385 0
v 0.365 1.615 0
v 0.365 1.635 0
v 0.365 1.74 0
v 0.365 1.76 0
v 0.385 1.24 0
v 0.385 1.26 0
v 0.375 1.25 0.0002
v 0.385 1.365 0
v 0.385 1.385 0
v 0.385 1.615 0
v 0.385 1.635 0
v 0.385 1.74 0
v 0.385 1.76 0
v 0.375 1.75 0.0001
v 0.615 1.24 0
v 0.615 1.26 0
v 0.615 1.365 0
v 0.615 1.385 0
v 0.615 1.615 0
v 0.615 1.635 0
v 0.615 1.74 0
v 0.615 1.76 0
v 0.635 1.24 0
v 0.635 1.26 0
v 0.625 1.25 0.0004
v 0.635 1.365 0
v 0.635 1.385 0
v 0.635 1.615 0
v 0.635 1.635 0
v 0.635 1.74 0
v 0.635 1.76 0
v 0.625 1.75 0.0003
v 0.74 1.24 0
v 0.74 1.26 0
v 0.74 1.365 0
v 0.74 1.385 0
v 0.74 1.615 0
v 0.74 1.635 0
v 0.74 1.74 0
v 0.74 1.76 0
v 0.76 1.24 0
v 0.76 1.26 0
v 0.76 1.365 0
v 0.76 1.385 0
v 0.75 1.375 0.0008
v 0.76 1.615 0
v 0.76 1.635 0
v 0.75 1.625 0.0007
v 0.76 1.74 0
v 0.76 1.76 0
v 1 1.24 0
v 1 1.26 0
v 1 1.365 0
v 1 1.385 0
v 1 1.615 0
v 1 1.635 0
v 1 1.74 0
v 1 1.76 0
v 0.24 1.24 2
v 0.24 1.26 2
v 0.24 1.365 2
v 0.24 1.385 2
v 0.24 1.615 2
v 0.24 1.635 2
v 0.24 1.74 2
v 0.24 1.76 2
v 0.26 1.24 2
v 0.26 1.26 2
v 0.26 1.365 2
v 0.25 1.375 1.9997
v 0.26 1.385 2
v 0.26 1.615 2
v 0.25 1.625 1.9999
v 0.26 1.635 2
v 0.26 1.74 2
v 0.26 1.76 2
v 0.365 1.24 2
v 0.365 1.26 2
v 0.365 1.365 2
v 0.365 1.385 2
v 0.365 1.615 2
v 0.365 1.635 2
v 0.365 1.74 2
v 0.365 1.76 2
v 0.385 1.24 2
v 0.375 1.25 1.9993
v 0.385 1.26 2
v 0.385 1.365 2
v 0.385 1.385 2
v 0.385 1.615 2
v 0.385 1.635 2
v 0.385 1.74 2
v 0.375 1.75 1.9995
v 0.385 1.76 2
v 0.615 1.24 2
v 0.615 1.26 2
v 0.615 1.365 2
v 0.615 1.385 2
v 0.615 1.615 2
v 0.615 1.635 2
v 0.615 1.74 2
v 0.615 1.76 2
v 0.635 1.24 2
v 0.625 1.25 1.9992
v 0.635 1.26 2
v 0.635 1.365 2
v 0.635 1.385 2
v 0.635 1.615 2
v 0.635 1.635 2
v 0.635 1.74 2
v 0.625 1.75 1.9994
v 0.635 1.76 2
v 0.74 1.24 2
v 0.74 1.26 2
v 0.74 1.365 2
v 0.74 1.385 2
v 0.74 1.615 2
v 0.74 1.635 2
v 0.74 1.74 2
v 0.74 1.76 2
v 0.76 1.24 2
v 0.76 1.26 2
v 0.76 1.365 2
v 0.75 1.375 1.9996
v 0.76 1.385 2
v 0.76 1.615 2
v 0.75 1.625 1.9998
v 0.76 1.635 2
v 0.76 1.74 2
v 0.76 1.76 2
v 1.24 0.24 0
v 1.24 0.26 0
v 1.24 0.365 0
v 1.24 0.385 0
v 1.24 0.615 0
v 1.24 0.635 0
v 1.24 0.74 0
v 1.24 0.76 0
v 1.24 1 0
v 1.26 0.24 0
v 1.26 0.26 0
v 1.26 0.365 0
v 1.26 0.385 0
v 1.25 0.375 -0.0002
v 1.26 0.615 0
v 1.26 0.635 0
v 1.25 0.625 -0.0004
v 1.26 0.74 0
v 1.26 0.76 0
v 1.26 1 0
v 1.365 0.24 0
v 1.365 0.26 0
v 1.365 0.365 0
v 1.365 0.385 0
v 1.365 0.615 0
v 1.365 0.635 0
v 1.365 0.74 0
v 1.365 0.76 0
v 1.365 1 0
v 1.385 0.24 0
v 1.385 0.26 0
v 1.375 0.25 -0.0006
v 1.385 0.365 0
v 1.385 0.385 0
v 1.385 0.615 0
v 1.385 0.635 0
v 1.385 0.74 0
v 1.385 0.76 0
v 1.375 0.75 -0.0008
v 1.385 1 0
v 1.615 0.24 0
v 1.615 0.26 0
v 1.615 0.365 0
v 1.615 0.385 0
v 1.615 0.615 0
v 1.615 0.635 0
v 1.615 0.74 0
v 1.615 0.76 0
v 1.615 1 0
v 1.635 0.24 0
v 1.635 0.26 0
v 1.625 0.25 -0.0005
v 1.635 0.365 0
v 1.635 0.385 0
v 1.635 0.615 0
v 1.635 0.635 0
v 1.635 0.74 0
v 1.635 0.76 0
v 1.625 0.75 -0.0007
v 1.635 1 0
v 1.74 0.24 0
v 1.74 0.26 0
v 1.74 0.365 0
v 1.74 0.385 0
v 1.74 0.615 0
v 1.74 0.635 0
v 1.74 0.74 0
v 1.74 0.76 0
v 1.74 1 0
v 1.76 0.24 0
v 1.76 0.26 0
v 1.76 0.365 0
v 1.76 0.385 0
v 1.75 0.375 -0.0001
v 1.76 0.615 0
v 1.76 0.635 0
v 1.75 0.625 -0.0003
v 1.76 0.74 0
v 1.76 0.76 0
v 1.76 1 0
v 1.24 0.24 2
v 1.24 0.26 2
v 1.24 0.365 2
v 1.24 0.385 2
v 1.24 0.615 2
v 1.24 0.635 2
v 1.24 0.74 2
v 1.24 0.76 2
v 1.26 0.24 2
v 1.26 0.26 2
v 1.26 0.365 2
v 1.25 0.375 2.0007
v 1.26 0.385 2
v 1.26 0.615 2
v 1.25 0.625 2.0008
v 1.26 0.635 2
v 1.26 0.74 2
v 1.26 0.76 2
v 1.365 0.24 2
v 1.365 0.26 2
v 1.365 0.365 2
v 1.365 0.385 2
v 1.365 0.615 2
v 1.365 0.635 2
v 1.365 0.74 2
v 1.365 0.76 2
v 1.385 0.24 2
v 1.375 0.25 2.0003
v 1.385 0.26 2
v 1.385 0.365 2
v 1.385 0.385 2
v 1.385 0.615 2
v 1.385 0.635 2
v 1.385 0.74 2
v 1.375 0.75 2.0004
v 1.385 0.76 2
v 1.615 0.24 2
v 1.615 0.26 2
v 1.615 0.365 2
v 1.615 0.385 2
v 1.615 0.615 2
v 1.615 0.635 2
v 1.615 0.74 2
v 1.615 0.76 2
v 1.635 0.24 2
v 1.625 0.25 2.0001
v 1.635 0.26 2
v 1.635 0.365 2
v 1.635 0.385 2
v 1.635 0.615 2
v 1.635 0.635 2
v 1.635 0.74 2
v 1.625 0.75 2.0002
v 1.635 0.76 2
v 1.74 0.24 2
v 1.74 0.26 2
v 1.74 0.365 2
v 1.74 0.385 2
v 1.74 0.615 2
v 1.74 0.635 2
v 1.74 0.74 2
v 1.74 0.76 2
v 1.76 0.24 2
v 1.76 0.26 2
v 1.76 0.365 2
v 1.75 0.375 2.0005
v 1.76 0.385 2
v 1.76 0.615 2
v 1.75 0.625 2.0006
v 1.76 0.635 2
v 1.76 0.74 2
v 1.76 0.76 2
v 1.24 1.24 0
v 1.24 1.26 0
v 1.24 1.365 0
v 1.24 1.385 0
v 1.24 1.615 0
v 1.24 1.635 0
v 1.24 1.74 0
v 1.24 1.76 0
v 1.26 1.24 0
v 1.26 1.26 0
v 1.26 1.365 0
v 1.26 1.385 0
v 1.25 1.375 0.0009
v 1.26 1.615 0
v 1.26 1.635 0
v 1.25 1.625 0.0011
v 1.26 1.74 0
v 1.26 1.76 0
v 1.365 1.24 0
v 1.365 1.26 0
v 1.365 1.365 0
v 1.365 1.385 0
v 1.365 1.615 0
v 1.365 1.635 0
v 1.365 1.74 0
v 1.365 1.76 0
v 1.385 1.24 0
v 1.385 1.26 0
v 1.375 1.25 -0.0009
v 1.385 1.365 0
v 1.385 1.385 0
v 1.385 1.615 0
v 1.385 1.635 0
v 1.385 1.74 0
v 1.385 1.76 0
v 1.375 1.75 -0.001
v 1.615 1.24 0
v 1.615 1.26 0
v 1.615 1.365 0
v 1.615 1.385 0
v 1.615 1.615 0
v 1.615 1.635 0
v 1.615 1.74 0
v 1.615 1.76 0
v 1.635 1.24 0
v 1.635 1.26 0
v 1.625 1.25 -0.0011
v 1.635 1.365 0
v 1.635 1.385 0
v 1.635 1.615 0
v 1.635 1.635 0
v 1.635 1.74 0
v 1.635 1.76 0
v 1.625 1.75 -0.0012
v 1.74 1.24 0
v 1.74 1.26 0
v 1.74 1.365 0
v 1.74 1.385 0
v 1.74 1.615 0
v 1.74 1.635 0
v 1.74 1.74 0
v 1.74 1.76 0
v 1.76 1.24 0
v 1.76 1.26 0
v 1.76 1.365 0
v 1.76 1.385 0
v 1.75 1.375 0.001
v 1.76 1.615 0
v 1.76 1.635 0
v 1.75 1.625 0.0012
v 1.76 1.74 0
v 1.76 1.76 0
v 1.24 1.24 1
v 1.24 1.26 1
v 1.24 1.365 1
v 1.24 1.385 1
v 1.24 1.615 1
v 1.24 1.635 1
v 1.24 1.74 1
v 1.24 1.76 1
v 1.26 1.24 1
v 1.26 1.26 1
v 1.26 1.365 1
v 1.25 1.375 1.0012
v 1.26 1.385 1
v 1.26 1.615 1
v 1.25 1.625 1.001
v 1.26 1.635 1
v 1.26 1.74 1
v 1.26 1.76 1
v 1.365 1.24 1
v 1.365 1.26 1
v 1.365 1.365 1
v 1.365 1.385 1
v 1.365 1.615 1
v 1.365 1.635 1
v 1.365 1.74 1
v 1.365 1.76 1
v 1.385 1.24 1
v 1.375 1.25 0.9988
v 1.385 1.26 1
v 1.385 1.365 1
v 1.385 1.385 1
v 1.385 1.615 1
v 1.385 1.635 1
v 1.385 1.74 1
v 1.375 1.75 0.9989
v 1.385 1.76 1
v 1.615 1.24 1
v 1.615 1.26 1
v 1.615 1.365 1
v 1.615 1.385 1
v 1.615 1.615 1
v 1.615 1.635 1
v 1.615 1.74 1
v 1.615 1.76 1
v 1.635 1.24 1
v 1.625 1.25 0.999
v 1.635 1.26 1
v 1.635 1.365 1
v 1.635 1.385 1
v 1.635 1.615 1
v 1.635 1.635 1
v 1.635 1.74 1
v 1.625 1.75 0.9991
v 1.635 1.76 1
v 1.74 1.24 1
v 1.74 1.26 1
v 1.74 1.365 1
v 1.74 1.385 1
v 1.74 1.615 1
v 1.74 1.635 1
v 1.74 1.74 1
v 1.74 1.76 1
v 1.76 1.24 1
v 1.76 1.26 1
v 1.76 1.365 1
v 1.75 1.375 1.0011
v 1.76 1.385 1
v 1.76 1.615 1
v 1.75 1.625 1.0009
v 1.76 1.635 1
v 1.76 1.74 1
v 1.76 1.76 1
f 1 2 3
f 1 3 4
f 5 6 2
f 5 2 1
f 7 8 6
f 7 6 5
f 9 10 8
f 9 8 7
f 11 12 10
f 11 10 9
f 13 14 12
f 13 12 11
f 15 16 14
f 15 14 13
f 17 18 16
f 17 16 15
f 19 20 18
f 19 18 17
f 2 21 22
f 2 22 3
f 6 23 21
f 6 21 2
f 8 24 23
f 8 23 6
f 10 25 26
f 25 24 26
f 24 8 26
f 8 10 26
f 12 27 25
f 12 25 10
f 14 28 29
f 28 27 29
f 27 12 29
f 12 14 29
f 16 30 28
f 16 28 14
f 18 31 30
f 18 30 16
f 20 32 31
f 20 31 18
f 21 33 34
f 21 34 22
f 23 35 33
f 23 33 21
f 24 36 35
f 24 35 23
f 25 37 36
f 25 36 24
f 27 38 37
f 27 37 25
f 28 39 38
f 28 38 27
f 30 40 39
f 30 39 28
f 31 41 40
f 31 40 30
f 32 42 41
f 32 41 31
f 33 43 44
f 33 44 34
f 35 45 46
f 45 43 46
f 43 33 46
f 33 35 46
f 36 47 45
f 36 45 35
f 37 48 47
f 37 47 36
f 38 49 48
f 38 48 37
f 39 50 49
f 39 49 38
f 40 51 50
f 40 50 39
f 41 52 53
f 52 51 53
f 51 40 53
f 40 41 53
f 42 54 52
f 42 52 41
f 43 55 56
f 43 56 44
f 45 57 55
f 45 55 43
f 47 58 57
f 47 57 45
f 48 59 58
f 48 58 47
f 49 60 59
f 49 59 48
f 50 61 60
f 50 60 49
f 51 62 61
f 51 61 50
f 52 63 62
f 52 62 51
f 54 64 63
f 54 63 52
f 55 65 66
f 55 66 56
f 57 67 68
f 67 65 68
f 65 55 68
f 55 57 68
f 58 69 67
f 58 67 57
f 59 70 69
f 59 69 58
f 60 71 70
f 60 70 59
f 61 72 71
f 61 71 60
f 62 73 72
f 62 72 61
f 63 74 75
f 74 73 75
f 73 62 75
f 62 63 75
f 64 76 74
f 64 74 63
f 65 77 78
f 65 78 66
f 67 79 77
f 67 77 65
f 69 80 79
f 69 79 67
f 70 81 80
f 70 80 69
f 71 82 81
f 71 81 70
f 72 83 82
f 72 82 71
f 73 84 83
f 73 83 72
f 74 85 84
f 74 84 73
f 76 86 85
f 76 85 74
f 77 87 88
f 77 88 78
f 79 89 87
f 79 87 77
f 80 90 89
f 80 89 79
f 81 91 92
f 91 90 92
f 90 80 92
f 80 81 92
f 82 93 91
f 82 91 81
f 83 94 95
f 94 93 95
f 93 82 95
f 82 83 95
f 84 96 94
f 84 94 83
f 85 97 96
f 85 96 84
f 86 98 97
f 86 97 85
f 87 99 100
f 87 100 88
f 89 101 99
f 89 99 87
f 90 102 101
f 90 101 89
f 91 103 102
f 91 102 90
f 93 104 103
f 93 103 91
f 94 105 104
f 94 104 93
f 96 106 105
f 96 105 94
f 97 107 106
f 97 106 96
f 98 108 107
f 98 107 97
f 109 110 20
f 109 20 19
f 111 112 110
f 111 110 109
f 113 114 112
f 113 112 111
f 115 116 114
f 115 114 113
f 117 118 116
f 117 116 115
f 119 120 118
f 119 118 117
f 121 122 120
f 121 120 119
f 123 124 122
f 123 122 121
f 125 126 124
f 125 124 123
f 110 127 32
f 110 32 20
f 112 128 127
f 112 127 110
f 114 129 128
f 114 128 112
f 116 130 131
f 130 129 131
f 129 114 131
f 114 116 131
f 118 132 130
f 118 130 116
f 120 133 134
f 133 132 134
f 132 118 134
f 118 120 134
f 122 135 133
f 122 133 120
f 124 136 135
f 124 135 122
f 126 137 136
f 126 136 124
f 127 138 42
f 127 42 32
f 128 139 138
f 128 138 127
f 129 140 139
f 129 139 128
f 130 141 140
f 130 140 129
f 132 142 141
f 132 141 130
f 133 143 142
f 133 142 132
f 135 144 143
f 135 143 133
f 136 145 144
f 136 144 135
f 137 146 145
f 137 145 136
f 138 147 54
f 138 54 42
f 139 148 149
f 148 147 149
f 147 138 149
f 138 139 149
f 140 150 148
f 140 148 139
f 141 151 150
f 141 150 140
f 142 152 151
f 142 151 141
f 143 153 152
f 143 152 142
f 144 154 153
f 144 153 143
f 145 155 156
f 155 154 156
f 154 144 156
f 144 145 156
f 146 157 155
f 146 155 145
f 147 158 64
f 147 64 54
f 148 159 158
f 148 158 147
f 150 160 159
f 150 159 148
f 151 161 160
f 151 160 150
f 152 162 161
f 152 161 151
f 153 163 162
f 153 162 152
f 154 164 163
f 154 163 153
f 155 165 164
f 155 164 154
f 157 166 165
f 157 165 155
f 158 167 76
f 158 76 64
f 159 168 169
f 168 167 169
f 167 158 169
f 158 159 169
f 160 170 168
f 160 168 159
f 161 171 170
f 161 170 160
f 162 172 171
f 162 171 161
f 163 173 172
f 163 172 162
f 164 174 173
f 164 173 163
f 165 175 176
f 175 174 176
f 174 164 176
f 164 165 176
f 166 177 175
f 166 175 165
f 167 178 86
f 167 86 76
f 168 179 178
f 168 178 167
f 170 180 179
f 170 179 168
f 171 181 180
f 171 180 170
f 172 182 181
f 172 181 171
f 173 183 182
f 173 182 172
f 174 184 183
f 174 183 173
f 175 185 184
f 175 184 174
f 177 186 185
f 177 185 175
f 178 187 98
f 178 98 86
f 179 188 187
f 179 187 178
f 180 189 188
f 180 188 179
f 181 190 191
f 190 189 191
f 189 180 191
f 180 181 191
f 182 192 190
f 182 190 181
f 183 193 194
f 193 192 194
f 192 182 194
f 182 183 194
f 184 195 193
f 184 193 183
f 185 196 195
f 185 195 184
f 186 197 196
f 186 196 185
f 187 198 108
f 187 108 98
f 188 199 198
f 188 198 187
f 189 200 199
f 189 199 188
f 190 201 200
f 190 200 189
f 192 202 201
f 192 201 190
f 193 203 202
f 193 202 192
f 195 204 203
f 195 203 193
f 196 205 204
f 196 204 195
f 197 206 205
f 197 205 196
f 99 207 208
f 99 208 100
f 101 209 207
f 101 207 99
f 102 210 209
f 102 209 101
f 103 211 210
f 103 210 102
f 104 212 211
f 104 211 103
f 105 213 212
f 105 212 104
f 106 214 213
f 106 213 105
f 107 215 214
f 107 214 106
f 108 216 215
f 108 215 107
f 207 217 218
f 207 218 208
f 209 219 217
f 209 217 207
f 210 220 219
f 210 219 209
f 211 221 222
f 221 220 222
f 220 210 222
f 210 211 222
f 212 223 221
f 212 221 211
f 213 224 225
f 224 223 225
f 223 212 225
f 212 213 225
f 214 226 224
f 214 224 213
f 215 227 226
f 215 226 214
f 216 228 227
f 216 227 215
f 217 229 230
f 217 230 218
f 219 231 229
f 219 229 217
f 220 232 231
f 220 231 219
f 221 233 232
f 221 232 220
f 223 234 233
f 223 233 221
f 224 235 234
f 224 234 223
f 226 236 235
f 226 235 224
f 227 237 236
f 227 236 226
f 228 238 237
f 228 237 227
f 229 239 240
f 229 240 230
f 231 241 242
f 241 239 242
f 239 229 242
f 229 231 242
f 232 243 241
f 232 241 231
f 233 244 243
f 233 243 232
f 234 245 244
f 234 244 233
f 235 246 245
f 235 245 234
f 236 247 246
f 236 246 235
f 237 248 249
f 248 247 249
f 247 236 249
f 236 237 249
f 238 250 248
f 238 248 237
f 239 251 252
f 239 252 240
f 241 253 251
f 241 251 239
f 243 254 253
f 243 253 241
f 244 255 254
f 244 254 243
f 245 256 255
f 245 255 244
f 246 257 256
f 246 256 245
f 247 258 257
f 247 257 246
f 248 259 258
f 248 258 247
f 250 260 259
f 250 259 248
f 251 261 262
f 251 262 252
f 253 263 264
f 263 261 264
f 261 251 264
f 251 253 264
f 254 265 263
f 254 263 253
f 255 266 265
f 255 265 254
f 256 267 266
f 256 266 255
f 257 268 267
f 257 267 256
f 258 269 268
f 258 268 257
f 259 270 271
f 270 269 271
f 269 258 271
f 258 259 271
f 260 272 270
f 260 270 259
f 261 273 274
f 261 274 262
f 263 275 273
f 263 273 261
f 265 276 275
f 265 275 263
f 266 277 276
f 266 276 265
f 267 278 277
f 267 277 266
f 268 279 278
f 268 278 267
f 269 280 279
f 269 279 268
f 270 281 280
f 270 280 269
f 272 282 281
f 272 281 270
f 273 283 284
f 273 284 274
f 275 285 283
f 275 283 273
f 276 286 285
f 276 285 275
f 277 287 288
f 287 286 288
f 286 276 288
f 276 277 288
f 278 289 287
f 278 287 277
f 279 290 291
f 290 289 291
f 289 278 291
f 278 279 291
f 280 292 290
f 280 290 279
f 281 293 292
f 281 292 280
f 282 294 293
f 282 293 281
f 283 295 296
f 283 296 284
f 285 297 295
f 285 295 283
f 286 298 297
f 286 297 285
f 287 299 298
f 287 298 286
f 289 300 299
f 289 299 287
f 290 301 300
f 290 300 289
f 292 302 301
f 292 301 290
f 293 303 302
f 293 302 292
f 294 304 303
f 294 303 293
f 198 305 216
f 198 216 108
f 199 306 305
f 199 305 198
f 200 307 306
f 200 306 199
f 201 308 307
f 201 307 200
f 202 309 308
f 202 308 201
f 203 310 309
f 203 309 202
f 204 311 310
f 204 310 203
f 205 312 311
f 205 311 204
f 206 313 312
f 206 312 205
f 305 314 228
f 305 228 216
f 306 315 314
f 306 314 305
f 307 316 315
f 307 315 306
f 308 317 318
f 317 316 318
f 316 307 318
f 307 308 318
f 309 319 317
f 309 317 308
f 310 320 321
f 320 319 321
f 319 309 321
f 309 310 321
f 311 322 320
f 311 320 310
f 312 323 322
f 312 322 311
f 313 324 323
f 313 323 312
f 314 325 238
f 314 238 228
f 315 326 325
f 315 325 314
f 316 327 326
f 316 326 315
f 317 328 327
f 317 327 316
f 319 329 328
f 319 328 317
f 320 330 329
f 320 329 319
f 322 331 330
f 322 330 320
f 323 332 331
f 323 331 322
f 324 333 332
f 324 332 323
f 325 334 250
f 325 250 238
f 326 335 336
f 335 334 336
f 334 325 336
f 325 326 336
f 327 337 335
f 327 335 326
f 328 338 337
f 328 337 327
f 329 339 338
f 329 338 328
f 330 340 339
f 330 339 329
f 331 341 340
f 331 340 330
f 332 342 343
f 342 341 343
f 341 331 343
f 331 332 343
f 333 344 342
f 333 342 332
f 334 345 260
f 334 260 250
f 335 346 345
f 335 345 334
f 337 347 346
f 337 346 335
f 338 348 347
f 338 347 337
f 339 349 348
f 339 348 338
f 340 350 349
f 340 349 339
f 341 351 350
f 341 350 340
f 342 352 351
f 342 351 341
f 344 353 352
f 344 352 342
f 345 354 272
f 345 272 260
f 346 355 356
f 355 354 356
f 354 345 356
f 345 346 356
f 347 357 355
f 347 355 346
f 348 358 357
f 348 357 347
f 349 359 358
f 349 358 348
f 350 360 359
f 350 359 349
f 351 361 360
f 351 360 350
f 352 362 363
f 362 361 363
f 361 351 363
f 351 352 363
f 353 364 362
f 353 362 352
f 354 365 282
f 354 282 272
f 355 366 365
f 355 365 354
f 357 367 366
f 357 366 355
f 358 368 367
f 358 367 357
f 359 369 368
f 359 368 358
f 360 370 369
f 360 369 359
f 361 371 370
f 361 370 360
f 362 372 371
f 362 371 361
f 364 373 372
f 364 372 362
f 365 374 294
f 365 294 282
f 366 375 374
f 366 374 365
f 367 376 375
f 367 375 366
f 368 377 378
f 377 376 378
f 376 367 378
f 367 368 378
f 369 379 377
f 369 377 368
f 370 380 381
f 380 379 381
f 379 369 381
f 369 370 381
f 371 382 380
f 371 380 370
f 372 383 382
f 372 382 371
f 373 384 383
f 373 383 372
f 374 385 304
f 374 304 294
f 375 386 385
f 375 385 374
f 376 387 386
f 376 386 375
f 377 388 387
f 377 387 376
f 379 389 388
f 379 388 377
f 380 390 389
f 380 389 379
f 382 391 390
f 382 390 380
f 383 392 391
f 383 391 382
f 384 393 392
f 384 392 383
f 394 395 396
f 394 396 397
f 397 396 398
f 397 398 399
f 399 398 400
f 399 400 401
f 401 400 402
f 401 402 403
f 403 402 404
f 403 404 405
f 405 404 406
f 405 406 407
f 407 406 408
f 407 408 409
f 409 408 410
f 409 410 411
f 411 410 412
f 411 412 413
f 395 414 415
f 395 415 396
f 396 415 416
f 396 416 398
f 398 416 417
f 398 417 400
f 400 417 418
f 417 419 418
f 419 402 418
f 402 400 418
f 402 419 420
f 402 420 404
f 404 420 421
f 420 422 421
f 422 406 421
f 406 404 421
f 406 422 423
f 406 423 408
f 408 423 424
f 408 424 410
f 410 424 425
f 410 425 412
f 414 426 427
f 414 427 415
f 415 427 428
f 415 428 416
f 416 428 429
f 416 429 417
f 417 429 430
f 417 430 419
f 419 430 431
f 419 431 420
f 420 431 432
f 420 432 422
f 422 432 433
f 422 433 423
f 423 433 434
f 423 434 424
f 424 434 435
f 424 435 425
f 426 436 437
f 426 437 427
f 427 437 438
f 437 439 438
f 439 428 438
f 428 427 438
f 428 439 440
f 428 440 429
f 429 440 441
f 429 441 430
f 430 441 442
f 430 442 431
f 431 442 443
f 431 443 432
f 432 443 444
f 432 444 433
f 433 444 445
f 444 446 445
f 446 434 445
f 434 433 445
f 434 446 447
f 434 447 435
f 436 448 449
f 436 449 437
f 437 449 450
f 437 450 439
f 439 450 451
f 439 451 440
f 440 451 452
f 440 452 441
f 441 452 453
f 441 453 442
f 442 453 454
f 442 454 443
f 443 454 455
f 443 455 444
f 444 455 456
f 444 456 446
f 446 456 457
f 446 457 447
f 448 458 459
f 448 459 449
f 449 459 460
f 459 461 460
f 461 450 460
f 450 449 460
f 450 461 462
f 450 462 451
f 451 462 463
f 451 463 452
f 452 463 464
f 452 464 453
f 453 464 465
f 453 465 454
f 454 465 466
f 454 466 455
f 455 466 467
f 466 468 467
f 468 456 467
f 456 455 467
f 456 468 469
f 456 469 457
f 458 470 471
f 458 471 459
f 459 471 472
f 459 472 461
f 461 472 473
f 461 473 462
f 462 473 474
f 462 474 463
f 463 474 475
f 463 475 464
f 464 475 476
f 464 476 465
f 465 476 477
f 465 477 466
f 466 477 478
f 466 478 468
f 468 478 479
f 468 479 469
f 470 480 481
f 470 481 471
f 471 481 482
f 471 482 472
f 472 482 483
f 472 483 473
f 473 483 484
f 483 485 484
f 485 474 484
f 474 473 484
f 474 485 486
f 474 486 475
f 475 486 487
f 486 488 487
f 488 476 487
f 476 475 487
f 476 488 489
f 476 489 477
f 477 489 490
f 477 490 478
f 478 490 491
f 478 491 479
f 480 492 493
f 480 493 481
f 481 493 494
f 481 494 482
f 482 494 495
f 482 495 483
f 483 495 496
f 483 496 485
f 485 496 497
f 485 497 486
f 486 497 498
f 486 498 488
f 488 498 499
f 488 499 489
f 489 499 500
f 489 500 490
f 490 500 501
f 490 501 491
f 502 503 504
f 502 504 505
f 505 504 506
f 505 506 507
f 507 506 508
f 507 508 509
f 509 508 510
f 509 510 511
f 511 510 512
f 511 512 513
f 513 512 514
f 513 514 515
f 515 514 516
f 515 516 517
f 517 516 518
f 517 518 519
f 519 518 520
f 519 520 521
f 503 522 523
f 503 523 504
f 504 523 524
f 504 524 506
f 506 524 525
f 506 525 508
f 508 525 526
f 525 527 526
f 527 510 526
f 510 508 526
f 510 527 528
f 510 528 512
f 512 528 529
f 528 530 529
f 530 514 529
f 514 512 529
f 514 530 531
f 514 531 516
f 516 531 532
f 516 532 518
f 518 532 533
f 518 533 520
f 522 534 535
f 522 535 523
f 523 535 536
f 523 536 524
f 524 536 537
f 524 537 525
f 525 537 538
f 525 538 527
f 527 538 539
f 527 539 528
f 528 539 540
f 528 540 530
f 530 540 541
f 530 541 531
f 531 541 542
f 531 542 532
f 532 542 543
f 532 543 533
f 534 544 545
f 534 545 535
f 535 545 546
f 545 547 546
f 547 536 546
f 536 535 546
f 536 547 548
f 536 548 537
f 537 548 549
f 537 549 538
f 538 549 550
f 538 550 539
f 539 550 551
f 539 551 540
f 540 551 552
f 540 552 541
f 541 552 553
f 552 554 553
f 554 542 553
f 542 541 553
f 542 554 555
f 542 555 543
f 544 556 557
f 544 557 545
f 545 557 558
f 545 558 547
f 547 558 559
f 547 559 548
f 548 559 560
f 548 560 549
f 549 560 561
f 549 561 550
f 550 561 562
f 550 562 551
f 551 562 563
f 551 563 552
f 552 563 564
f 552 564 554
f 554 564 565
f 554 565 555
f 556 566 567
f 556 567 557
f 557 567 568
f 567 569 568
f 569 558 568
f 558 557 568
f 558 569 570
f 558 570 559
f 559 570 571
f 559 571 560
f 560 571 572
f 560 572 561
f 561 572 573
f 561 573 562
f 562 573 574
f 562 574 563
f 563 574 575
f 574 576 575
f 576 564 575
f 564 563 575
f 564 576 577
f 564 577 565
f 566 578 579
f 566 579 567
f 567 579 580
f 567 580 569
f 569 580 581
f 569 581 570
f 570 581 582
f 570 582 571
f 571 582 583
f 571 583 572
f 572 583 584
f 572 584 573
f 573 584 585
f 573 585 574
f 574 585 586
f 574 586 576
f 576 586 587
f 576 587 577
f 578 588 589
f 578 589 579
f 579 589 590
f 579 590 580
f 580 590 591
f 580 591 581
f 581 591 592
f 591 593 592
f 593 582 592
f 582 581 592
f 582 593 594
f 582 594 583
f 583 594 595
f 594 596 595
f 596 584 595
f 584 583 595
f 584 596 597
f 584 597 585
f 585 597 598
f 585 598 586
f 586 598 599
f 586 599 587
f 588 600 601
f 588 601 589
f 589 601 602
f 589 602 590
f 590 602 603
f 590 603 591
f 591 603 604
f 591 604 593
f 593 604 605
f 593 605 594
f 594 605 606
f 594 606 596
f 596 606 607
f 596 607 597
f 597 607 608
f 597 608 598
f 598 608 609
f 598 609 599
f 521 520 610
f 521 610 611
f 611 610 612
f 611 612 613
f 613 612 614
f 613 614 615
f 615 614 616
f 615 616 617
f 617 616 618
f 617 618 619
f 619 618 620
f 619 620 621
f 621 620 622
f 621 622 623
f 623 622 624
f 623 624 625
f 625 624 626
f 625 626 627
f 520 533 628
f 520 628 610
f 610 628 629
f 610 629 612
f 612 629 630
f 612 630 614
f 614 630 631
f 630 632 631
f 632 616 631
f 616 614 631
f 616 632 633
f 616 633 618
f 618 633 634
f 633 635 634
f 635 620 634
f 620 618 634
f 620 635 636
f 620 636 622
f 622 636 637
f 622 637 624
f 624 637 638
f 624 638 626
f 533 543 639
f 533 639 628
f 628 639 640
f 628 640 629
f 629 640 641
f 629 641 630
f 630 641 642
f 630 642 632
f 632 642 643
f 632 643 633
f 633 643 644
f 633 644 635
f 635 644 645
f 635 645 636
f 636 645 646
f 636 646 637
f 637 646 647
f 637 647 638
f 543 555 648
f 543 648 639
f 639 648 649
f 648 650 649
f 650 640 649
f 640 639 649
f 640 650 651
f 640 651 641
f 641 651 652
f 641 652 642
f 642 652 653
f 642 653 643
f 643 653 654
f 643 654 644
f 644 654 655
f 644 655 645
f 645 655 656
f 655 657 656
f 657 646 656
f 646 645 656
f 646 657 658
f 646 658 647
f 555 565 659
f 555 659 648
f 648 659 660
f 648 660 650
f 650 660 661
f 650 661 651
f 651 661 662
f 651 662 652
f 652 662 663
f 652 663 653
f 653 663 664
f 653 664 654
f 654 664 665
f 654 665 655
f 655 665 666
f 655 666 657
f 657 666 667
f 657 667 658
f 565 577 668
f 565 668 659
f 659 668 669
f 668 670 669
f 670 660 669
f 660 659 669
f 660 670 671
f 660 671 661
f 661 671 672
f 661 672 662
f 662 672 673
f 662 673 663
f 663 673 674
f 663 674 664
f 664 674 675
f 664 675 665
f 665 675 676
f 675 677 676
f 677 666 676
f 666 665 676
f 666 677 678
f 666 678 667
f 577 587 679
f 577 679 668
f 668 679 680
f 668 680 670
f 670 680 681
f 670 681 671
f 671 681 682
f 671 682 672
f 672 682 683
f 672 683 673
f 673 683 684
f 673 684 674
f 674 684 685
f 674 685 675
f 675 685 686
f 675 686 677
f 677 686 687
f 677 687 678
f 587 599 688
f 587 688 679
f 679 688 689
f 679 689 680
f 680 689 690
f 680 690 681
f 681 690 691
f 690 692 691
f 692 682 691
f 682 681 691
f 682 692 693
f 682 693 683
f 683 693 694
f 693 695 694
f 695 684 694
f 684 683 694
f 684 695 696
f 684 696 685
f 685 696 697
f 685 697 686
f 686 697 698
f 686 698 687
f 599 609 699
f 599 699 688
f 688 699 700
f 688 700 689
f 689 700 701
f 689 701 690
f 690 701 702
f 690 702 692
f 692 702 703
f 692 703 693
f 693 703 704
f 693 704 695
f 695 704 705
f 695 705 696
f 696 705 706
f 696 706 697
f 697 706 707
f 697 707 698
f 600 708 709
f 600 709 601
f 601 709 710
f 601 710 602
f 602 710 711
f 602 711 603
f 603 711 712
f 603 712 604
f 604 712 713
f 604 713 605
f 605 713 714
f 605 714 606
f 606 714 715
f 606 715 607
f 607 715 716
f 607 716 608
f 608 716 717
f 608 717 609
f 708 718 719
f 708 719 709
f 709 719 720
f 709 720 710
f 710 720 721
f 710 721 711
f 711 721 722
f 721 723 722
f 723 712 722
f 712 711 722
f 712 723 724
f 712 724 713
f 713 724 725
f 724 726 725
f 726 714 725
f 714 713 725
f 714 726 727
f 714 727 715
f 715 727 728
f 715 728 716
f 716 728 729
f 716 729 717
f 718 730 731
f 718 731 719
f 719 731 732
f 719 732 720
f 720 732 733
f 720 733 721
f 721 733 734
f 721 734 723
f 723 734 735
f 723 735 724
f 724 735 736
f 724 736 726
f 726 736 737
f 726 737 727
f 727 737 738
f 727 738 728
f 728 738 739
f 728 739 729
f 730 740 741
f 730 741 731
f 731 741 742
f 741 743 742
f 743 732 742
f 732 731 742
f 732 743 744
f 732 744 733
f 733 744 745
f 733 745 734
f 734 745 746
f 734 746 735
f 735 746 747
f 735 747 736
f 736 747 748
f 736 748 737
f 737 748 749
f 748 750 749
f 750 738 749
f 738 737 749
f 738 750 751
f 738 751 739
f 740 752 753
f 740 753 741
f 741 753 754
f 741 754 743
f 743 754 755
f 743 755 744
f 744 755 756
f 744 756 745
f 745 756 757
f 745 757 746
f 746 757 758
f 746 758 747
f 747 758 759
f 747 759 748
f 748 759 760
f 748 760 750
f 750 760 761
f 750 761 751
f 752 762 763
f 752 763 753
f 753 763 764
f 763 765 764
f 765 754 764
f 754 753 764
f 754 765 766
f 754 766 755
f 755 766 767
f 755 767 756
f 756 767 768
f 756 768 757
f 757 768 769
f 757 769 758
f 758 769 770
f 758 770 759
f 759 770 771
f 770 772 771
f 772 760 771
f 760 759 771
f 760 772 773
f 760 773 761
f 762 774 775
f 762 775 763
f 763 775 776
f 763 776 765
f 765 776 777
f 765 777 766
f 766 777 778
f 766 778 767
f 767 778 779
f 767 779 768
f 768 779 780
f 768 780 769
f 769 780 781
f 769 781 770
f 770 781 782
f 770 782 772
f 772 782 783
f 772 783 773
f 774 784 785
f 774 785 775
f 775 785 786
f 775 786 776
f 776 786 787
f 776 787 777
f 777 787 788
f 787 789 788
f 789 778 788
f 778 777 788
f 778 789 790
f 778 790 779
f 779 790 791
f 790 792 791
f 792 780 791
f 780 779 791
f 780 792 793
f 780 793 781
f 781 793 794
f 781 794 782
f 782 794 795
f 782 795 783
f 784 796 797
f 784 797 785
f 785 797 798
f 785 798 786
f 786 798 799
f 786 799 787
f 787 799 800
f 787 800 789
f 789 800 801
f 789 801 790
f 790 801 802
f 790 802 792
f 792 802 803
f 792 803 793
f 793 803 804
f 793 804 794
f 794 804 805
f 794 805 795
f 4 806 807
f 4 807 1
f 1 807 808
f 1 808 5
f 5 808 809
f 5 809 7
f 7 809 810
f 7 810 9
f 9 810 811
f 9 811 11
f 11 811 812
f 11 812 13
f 13 812 813
f 13 813 15
f 15 813 814
f 15 814 17
f 17 814 815
f 17 815 19
f 806 816 817
f 806 817 807
f 807 817 818
f 807 818 808
f 808 818 819
f 808 819 809
f 809 819 820
f 819 821 820
f 821 810 820
f 810 809 820
f 810 821 822
f 810 822 811
f 811 822 823
f 822 824 823
f 824 812 823
f 812 811 823
f 812 824 825
f 812 825 813
f 813 825 826
f 813 826 814
f 814 826 827
f 814 827 815
f 816 828 829
f 816 829 817
f 817 829 830
f 817 830 818
f 818 830 831
f 818 831 819
f 819 831 832
f 819 832 821
f 821 832 833
f 821 833 822
f 822 833 834
f 822 834 824
f 824 834 835
f 824 835 825
f 825 835 836
f 825 836 826
f 826 836 837
f 826 837 827
f 828 838 839
f 828 839 829
f 829 839 840
f 839 841 840
f 841 830 840
f 830 829 840
f 830 841 842
f 830 842 831
f 831 842 843
f 831 843 832
f 832 843 844
f 832 844 833
f 833 844 845
f 833 845 834
f 834 845 846
f 834 846 835
f 835 846 847
f 846 848 847
f 848 836 847
f 836 835 847
f 836 848 849
f 836 849 837
f 838 850 851
f 838 851 839
f 839 851 852
f 839 852 841
f 841 852 853
f 841 853 842
f 842 853 854
f 842 854 843
f 843 854 855
f 843 855 844
f 844 855 856
f 844 856 845
f 845 856 857
f 845 857 846
f 846 857 858
f 846 858 848
f 848 858 859
f 848 859 849
f 850 860 861
f 850 861 851
f 851 861 862
f 861 863 862
f 863 852 862
f 852 851 862
f 852 863 864
f 852 864 853
f 853 864 865
f 853 865 854
f 854 865 866
f 854 866 855
f 855 866 867
f 855 867 856
f 856 867 868
f 856 868 857
f 857 868 869
f 868 870 869
f 870 858 869
f 858 857 869
f 858 870 871
f 858 871 859
f 860 872 873
f 860 873 861
f 861 873 874
f 861 874 863
f 863 874 875
f 863 875 864
f 864 875 876
f 864 876 865
f 865 876 877
f 865 877 866
f 866 877 878
f 866 878 867
f 867 878 879
f 867 879 868
f 868 879 880
f 868 880 870
f 870 880 881
f 870 881 871
f 872 882 883
f 872 883 873
f 873 883 884
f 873 884 874
f 874 884 885
f 874 885 875
f 875 885 886
f 885 887 886
f 887 876 886
f 876 875 886
f 876 887 888
f 876 888 877
f 877 888 889
f 888 890 889
f 890 878 889
f 878 877 889
f 878 890 891
f 878 891 879
f 879 891 892
f 879 892 880
f 880 892 893
f 880 893 881
f 882 894 895
f 882 895 883
f 883 895 896
f 883 896 884
f 884 896 897
f 884 897 885
f 885 897 898
f 885 898 887
f 887 898 899
f 887 899 888
f 888 899 900
f 888 900 890
f 890 900 901
f 890 901 891
f 891 901 902
f 891 902 892
f 892 902 903
f 892 903 893
f 19 815 904
f 19 904 109
f 109 904 905
f 109 905 111
f 111 905 906
f 111 906 113
f 113 906 907
f 113 907 115
f 115 907 908
f 115 908 117
f 117 908 909
f 117 909 119
f 119 909 910
f 119 910 121
f 121 910 911
f 121 911 123
f 123 911 912
f 123 912 125
f 815 827 913
f 815 913 904
f 904 913 914
f 904 914 905
f 905 914 915
f 905 915 906
f 906 915 916
f 915 917 916
f 917 907 916
f 907 906 916
f 907 917 918
f 907 918 908
f 908 918 919
f 918 920 919
f 920 909 919
f 909 908 919
f 909 920 921
f 909 921 910
f 910 921 922
f 910 922 911
f 911 922 923
f 911 923 912
f 827 837 924
f 827 924 913
f 913 924 925
f 913 925 914
f 914 925 926
f 914 926 915
f 915 926 927
f 915 927 917
f 917 927 928
f 917 928 918
f 918 928 929
f 918 929 920
f 920 929 930
f 920 930 921
f 921 930 931
f 921 931 922
f 922 931 932
f 922 932 923
f 837 849 933
f 837 933 924
f 924 933 934
f 933 935 934
f 935 925 934
f 925 924 934
f 925 935 936
f 925 936 926
f 926 936 937
f 926 937 927
f 927 937 938
f 927 938 928
f 928 938 939
f 928 939 929
f 929 939 940
f 929 940 930
f 930 940 941
f 940 942 941
f 942 931 941
f 931 930 941
f 931 942 943
f 931 943 932
f 849 859 944
f 849 944 933
f 933 944 945
f 933 945 935
f 935 945 946
f 935 946 936
f 936 946 947
f 936 947 937
f 937 947 948
f 937 948 938
f 938 948 949
f 938 949 939
f 939 949 950
f 939 950 940
f 940 950 951
f 940 951 942
f 942 951 952
f 942 952 943
f 859 871 953
f 859 953 944
f 944 953 954
f 953 955 954
f 955 945 954
f 945 944 954
f 945 955 956
f 945 956 946
f 946 956 957
f 946 957 947
f 947 957 958
f 947 958 948
f 948 958 959
f 948 959 949
f 949 959 960
f 949 960 950
f 950 960 961
f 960 962 961
f 962 951 961
f 951 950 961
f 951 962 963
f 951 963 952
f 871 881 964
f 871 964 953
f 953 964 965
f 953 965 955
f 955 965 966
f 955 966 956
f 956 966 967
f 956 967 957
f 957 967 968
f 957 968 958
f 958 968 969
f 958 969 959
f 959 969 970
f 959 970 960
f 960 970 971
f 960 971 962
f 962 971 972
f 962 972 963
f 881 893 973
f 881 973 964
f 964 973 974
f 964 974 965
f 965 974 975
f 965 975 966
f 966 975 976
f 975 977 976
f 977 967 976
f 967 966 976
f 967 977 978
f 967 978 968
f 968 978 979
f 978 980 979
f 980 969 979
f 969 968 979
f 969 980 981
f 969 981 970
f 970 981 982
f 970 982 971
f 971 982 983
f 971 983 972
f 893 903 984
f 893 984 973
f 973 984 985
f 973 985 974
f 974 985 986
f 974 986 975
f 975 986 987
f 975 987 977
f 977 987 988
f 977 988 978
f 978 988 989
f 978 989 980
f 980 989 990
f 980 990 981
f 981 990 991
f 981 991 982
f 982 991 992
f 982 992 983
f 295 993 994
f 295 994 296
f 297 995 993
f 297 993 295
f 298 996 995
f 298 995 297
f 299 997 996
f 299 996 298
f 300 998 997
f 300 997 299
f 301 999 998
f 301 998 300
f 302 1000 999
f 302 999 301
f 303 1001 1000
f 303 1000 302
f 304 1002 1001
f 304 1001 303
f 993 1003 1004
f 993 1004 994
f 995 1005 1003
f 995 1003 993
f 996 1006 1005
f 996 1005 995
f 997 1007 1008
f 1007 1006 1008
f 1006 996 1008
f 996 997 1008
f 998 1009 1007
f 998 1007 997
f 999 1010 1011
f 1010 1009 1011
f 1009 998 1011
f 998 999 1011
f 1000 1012 1010
f 1000 1010 999
f 1001 1013 1012
f 1001 1012 1000
f 1002 1014 1013
f 1002 1013 1001
f 1003 1015 1016
f 1003 1016 1004
f 1005 1017 1015
f 1005 1015 1003
f 1006 1018 1017
f 1006 1017 1005
f 1007 1019 1018
f 1007 1018 1006
f 1009 1020 1019
f 1009 1019 1007
f 1010 1021 1020
f 1010 1020 1009
f 1012 1022 1021
f 1012 1021 1010
f 1013 1023 1022
f 1013 1022 1012
f 1014 1024 1023
f 1014 1023 1013
f 1015 1025 1026
f 1015 1026 1016
f 1017 1027 1028
f 1027 1025 1028
f 1025 1015 1028
f 1015 1017 1028
f 1018 1029 1027
f 1018 1027 1017
f 1019 1030 1029
f 1019 1029 1018
f 1020 1031 1030
f 1020 1030 1019
f 1021 1032 1031
f 1021 1031 1020
f 1022 1033 1032
f 1022 1032 1021
f 1023 1034 1035
f 1034 1033 1035
f 1033 1022 1035
f 1022 1023 1035
f 1024 1036 1034
f 1024 1034 1023
f 1025 1037 1038
f 1025 1038 1026
f 1027 1039 1037
f 1027 1037 1025
f 1029 1040 1039
f 1029 1039 1027
f 1030 1041 1040
f 1030 1040 1029
f 1031 1042 1041
f 1031 1041 1030
f 1032 1043 1042
f 1032 1042 1031
f 1033 1044 1043
f 1033 1043 1032
f 1034 1045 1044
f 1034 1044 1033
f 1036 1046 1045
f 1036 1045 1034
f 1037 1047 1048
f 1037 1048 1038
f 1039 1049 1050
f 1049 1047 1050
f 1047 1037 1050
f 1037 1039 1050
f 1040 1051 1049
f 1040 1049 1039
f 1041 1052 1051
f 1041 1051 1040
f 1042 1053 1052
f 1042 1052 1041
f 1043 1054 1053
f 1043 1053 1042
f 1044 1055 1054
f 1044 1054 1043
f 1045 1056 1057
f 1056 1055 1057
f 1055 1044 1057
f 1044 1045 1057
f 1046 1058 1056
f 1046 1056 1045
f 1047 1059 1060
f 1047 1060 1048
f 1049 1061 1059
f 1049 1059 1047
f 1051 1062 1061
f 1051 1061 1049
f 1052 1063 1062
f 1052 1062 1051
f 1053 1064 1063
f 1053 1063 1052
f 1054 1065 1064
f 1054 1064 1053
f 1055 1066 1065
f 1055 1065 1054
f 1056 1067 1066
f 1056 1066 1055
f 1058 1068 1067
f 1058 1067 1056
f 1059 1069 1070
f 1059 1070 1060
f 1061 1071 1069
f 1061 1069 1059
f 1062 1072 1071
f 1062 1071 1061
f 1063 1073 1074
f 1073 1072 1074
f 1072 1062 1074
f 1062 1063 1074
f 1064 1075 1073
f 1064 1073 1063
f 1065 1076 1077
f 1076 1075 1077
f 1075 1064 1077
f 1064 1065 1077
f 1066 1078 1076
f 1066 1076 1065
f 1067 1079 1078
f 1067 1078 1066
f 1068 1080 1079
f 1068 1079 1067
f 1069 1081 1082
f 1069 1082 1070
f 1071 1083 1081
f 1071 1081 1069
f 1072 1084 1083
f 1072 1083 1071
f 1073 1085 1084
f 1073 1084 1072
f 1075 1086 1085
f 1075 1085 1073
f 1076 1087 1086
f 1076 1086 1075
f 1078 1088 1087
f 1078 1087 1076
f 1079 1089 1088
f 1079 1088 1078
f 1080 492 1089
f 1080 1089 1079
f 385 1090 1002
f 385 1002 304
f 386 1091 1090
f 386 1090 385
f 387 1092 1091
f 387 1091 386
f 388 1093 1092
f 388 1092 387
f 389 1094 1093
f 389 1093 388
f 390 1095 1094
f 390 1094 389
f 391 1096 1095
f 391 1095 390
f 392 1097 1096
f 392 1096 391
f 393 1098 1097
f 393 1097 392
f 1090 1099 1014
f 1090 1014 1002
f 1091 1100 1099
f 1091 1099 1090
f 1092 1101 1100
f 1092 1100 1091
f 1093 1102 1103
f 1102 1101 1103
f 1101 1092 1103
f 1092 1093 1103
f 1094 1104 1102
f 1094 1102 1093
f 1095 1105 1106
f 1105 1104 1106
f 1104 1094 1106
f 1094 1095 1106
f 1096 1107 1105
f 1096 1105 1095
f 1097 1108 1107
f 1097 1107 1096
f 1098 1109 1108
f 1098 1108 1097
f 1099 1110 1024
f 1099 1024 1014
f 1100 1111 1110
f 1100 1110 1099
f 1101 1112 1111
f 1101 1111 1100
f 1102 1113 1112
f 1102 1112 1101
f 1104 1114 1113
f 1104 1113 1102
f 1105 1115 1114
f 1105 1114 1104
f 1107 1116 1115
f 1107 1115 1105
f 1108 1117 1116
f 1108 1116 1107
f 1109 1118 1117
f 1109 1117 1108
f 1110 1119 1036
f 1110 1036 1024
f 1111 1120 1121
f 1120 1119 1121
f 1119 1110 1121
f 1110 1111 1121
f 1112 1122 1120
f 1112 1120 1111
f 1113 1123 1122
f 1113 1122 1112
f 1114 1124 1123
f 1114 1123 1113
f 1115 1125 1124
f 1115 1124 1114
f 1116 1126 1125
f 1116 1125 1115
f 1117 1127 1128
f 1127 1126 1128
f 1126 1116 1128
f 1116 1117 1128
f 1118 1129 1127
f 1118 1127 1117
f 1119 1130 1046
f 1119 1046 1036
f 1120 1131 1130
f 1120 1130 1119
f 1122 1132 1131
f 1122 1131 1120
f 1123 1133 1132
f 1123 1132 1122
f 1124 1134 1133
f 1124 1133 1123
f 1125 1135 1134
f 1125 1134 1124
f 1126 1136 1135
f 1126 1135 1125
f 1127 1137 1136
f 1127 1136 1126
f 1129 1138 1137
f 1129 1137 1127
f 1130 1139 1058
f 1130 1058 1046
f 1131 1140 1141
f 1140 1139 1141
f 1139 1130 1141
f 1130 1131 1141
f 1132 1142 1140
f 1132 1140 1131
f 1133 1143 1142
f 1133 1142 1132
f 1134 1144 1143
f 1134 1143 1133
f 1135 1145 1144
f 1135 1144 1134
f 1136 1146 1145
f 1136 1145 1135
f 1137 1147 1148
f 1147 1146 1148
f 1146 1136 1148
f 1136 1137 1148
f 1138 1149 1147
f 1138 1147 1137
f 1139 1150 1068
f 1139 1068 1058
f 1140 1151 1150
f 1140 1150 1139
f 1142 1152 1151
f 1142 1151 1140
f 1143 1153 1152
f 1143 1152 1142
f 1144 1154 1153
f 1144 1153 1143
f 1145 1155 1154
f 1145 1154 1144
f 1146 1156 1155
f 1146 1155 1145
f 1147 1157 1156
f 1147 1156 1146
f 1149 1158 1157
f 1149 1157 1147
f 1150 1159 1080
f 1150 1080 1068
f 1151 1160 1159
f 1151 1159 1150
f 1152 1161 1160
f 1152 1160 1151
f 1153 1162 1163
f 1162 1161 1163
f 1161 1152 1163
f 1152 1153 1163
f 1154 1164 1162
f 1154 1162 1153
f 1155 1165 1166
f 1165 1164 1166
f 1164 1154 1166
f 1154 1155 1166
f 1156 1167 1165
f 1156 1165 1155
f 1157 1168 1167
f 1157 1167 1156
f 1158 1169 1168
f 1158 1168 1157
f 1159 493 492
f 1159 492 1080
f 1160 494 493
f 1160 493 1159
f 1161 495 494
f 1161 494 1160
f 1162 496 495
f 1162 495 1161
f 1164 497 496
f 1164 496 1162
f 1165 498 497
f 1165 497 1164
f 1167 499 498
f 1167 498 1165
f 1168 500 499
f 1168 499 1167
f 1169 501 500
f 1169 500 1168
f 894 1170 1171
f 894 1171 895
f 895 1171 1172
f 895 1172 896
f 896 1172 1173
f 896 1173 897
f 897 1173 1174
f 897 1174 898
f 898 1174 1175
f 898 1175 899
f 899 1175 1176
f 899 1176 900
f 900 1176 1177
f 900 1177 901
f 901 1177 1178
f 901 1178 902
f 902 1178 1179
f 902 1179 903
f 1170 1180 1181
f 1170 1181 1171
f 1171 1181 1182
f 1171 1182 1172
f 1172 1182 1183
f 1172 1183 1173
f 1173 1183 1184
f 1183 1185 1184
f 1185 1174 1184
f 1174 1173 1184
f 1174 1185 1186
f 1174 1186 1175
f 1175 1186 1187
f 1186 1188 1187
f 1188 1176 1187
f 1176 1175 1187
f 1176 1188 1189
f 1176 1189 1177
f 1177 1189 1190
f 1177 1190 1178
f 1178 1190 1191
f 1178 1191 1179
f 1180 1192 1193
f 1180 1193 1181
f 1181 1193 1194
f 1181 1194 1182
f 1182 1194 1195
f 1182 1195 1183
f 1183 1195 1196
f 1183 1196 1185
f 1185 1196 1197
f 1185 1197 1186
f 1186 1197 1198
f 1186 1198 1188
f 1188 1198 1199
f 1188 1199 1189
f 1189 1199 1200
f 1189 1200 1190
f 1190 1200 1201
f 1190 1201 1191
f 1192 1202 1203
f 1192 1203 1193
f 1193 1203 1204
f 1203 1205 1204
f 1205 1194 1204
f 1194 1193 1204
f 1194 1205 1206
f 1194 1206 1195
f 1195 1206 1207
f 1195 1207 1196
f 1196 1207 1208
f 1196 1208 1197
f 1197 1208 1209
f 1197 1209 1198
f 1198 1209 1210
f 1198 1210 1199
f 1199 1210 1211
f 1210 1212 1211
f 1212 1200 1211
f 1200 1199 1211
f 1200 1212 1213
f 1200 1213 1201
f 1202 1214 1215
f 1202 1215 1203
f 1203 1215 1216
f 1203 1216 1205
f 1205 1216 1217
f 1205 1217 1206
f 1206 1217 1218
f 1206 1218 1207
f 1207 1218 1219
f 1207 1219 1208
f 1208 1219 1220
f 1208 1220 1209
f 1209 1220 1221
f 1209 1221 1210
f 1210 1221 1222
f 1210 1222 1212
f 1212 1222 1223
f 1212 1223 1213
f 1214 1224 1225
f 1214 1225 1215
f 1215 1225 1226
f 1225 1227 1226
f 1227 1216 1226
f 1216 1215 1226
f 1216 1227 1228
f 1216 1228 1217
f 1217 1228 1229
f 1217 1229 1218
f 1218 1229 1230
f 1218 1230 1219
f 1219 1230 1231
f 1219 1231 1220
f 1220 1231 1232
f 1220 1232 1221
f 1221 1232 1233
f 1232 1234 1233
f 1234 1222 1233
f 1222 1221 1233
f 1222 1234 1235
f 1222 1235 1223
f 1224 1236 1237
f 1224 1237 1225
f 1225 1237 1238
f 1225 1238 1227
f 1227 1238 1239
f 1227 1239 1228
f 1228 1239 1240
f 1228 1240 1229
f 1229 1240 1241
f 1229 1241 1230
f 1230 1241 1242
f 1230 1242 1231
f 1231 1242 1243
f 1231 1243 1232
f 1232 1243 1244
f 1232 1244 1234
f 1234 1244 1245
f 1234 1245 1235
f 1236 1246 1247
f 1236 1247 1237
f 1237 1247 1248
f 1237 1248 1238
f 1238 1248 1249
f 1238 1249 1239
f 1239 1249 1250
f 1249 1251 1250
f 1251 1240 1250
f 1240 1239 1250
f 1240 1251 1252
f 1240 1252 1241
f 1241 1252 1253
f 1252 1254 1253
f 1254 1242 1253
f 1242 1241 1253
f 1242 1254 1255
f 1242 1255 1243
f 1243 1255 1256
f 1243 1256 1244
f 1244 1256 1257
f 1244 1257 1245
f 1246 502 505
f 1246 505 1247
f 1247 505 507
f 1247 507 1248
f 1248 507 509
f 1248 509 1249
f 1249 509 511
f 1249 511 1251
f 1251 511 513
f 1251 513 1252
f 1252 513 515
f 1252 515 1254
f 1254 515 517
f 1254 517 1255
f 1255 517 519
f 1255 519 1256
f 1256 519 521
f 1256 521 1257
f 903 1179 1258
f 903 1258 984
f 984 1258 1259
f 984 1259 985
f 985 1259 1260
f 985 1260 986
f 986 1260 1261
f 986 1261 987
f 987 1261 1262
f 987 1262 988
f 988 1262 1263
f 988 1263 989
f 989 1263 1264
f 989 1264 990
f 990 1264 1265
f 990 1265 991
f 991 1265 1266
f 991 1266 992
f 1179 1191 1267
f 1179 1267 1258
f 1258 1267 1268
f 1258 1268 1259
f 1259 1268 1269
f 1259 1269 1260
f 1260 1269 1270
f 1269 1271 1270
f 1271 1261 1270
f 1261 1260 1270
f 1261 1271 1272
f 1261 1272 1262
f 1262 1272 1273
f 1272 1274 1273
f 1274 1263 1273
f 1263 1262 1273
f 1263 1274 1275
f 1263 1275 1264
f 1264 1275 1276
f 1264 1276 1265
f 1265 1276 1277
f 1265 1277 1266
f 1191 1201 1278
f 1191 1278 1267
f 1267 1278 1279
f 1267 1279 1268
f 1268 1279 1280
f 1268 1280 1269
f 1269 1280 1281
f 1269 1281 1271
f 1271 1281 1282
f 1271 1282 1272
f 1272 1282 1283
f 1272 1283 1274
f 1274 1283 1284
f 1274 1284 1275
f 1275 1284 1285
f 1275 1285 1276
f 1276 1285 1286
f 1276 1286 1277
f 1201 1213 1287
f 1201 1287 1278
f 1278 1287 1288
f 1287 1289 1288
f 1289 1279 1288
f 1279 1278 1288
f 1279 1289 1290
f 1279 1290 1280
f 1280 1290 1291
f 1280 1291 1281
f 1281 1291 1292
f 1281 1292 1282
f 1282 1292 1293
f 1282 1293 1283
f 1283 1293 1294
f 1283 1294 1284
f 1284 1294 1295
f 1294 1296 1295
f 1296 1285 1295
f 1285 1284 1295
f 1285 1296 1297
f 1285 1297 1286
f 1213 1223 1298
f 1213 1298 1287
f 1287 1298 1299
f 1287 1299 1289
f 1289 1299 1300
f 1289 1300 1290
f 1290 1300 1301
f 1290 1301 1291
f 1291 1301 1302
f 1291 1302 1292
f 1292 1302 1303
f 1292 1303 1293
f 1293 1303 1304
f 1293 1304 1294
f 1294 1304 1305
f 1294 1305 1296
f 1296 1305 1306
f 1296 1306 1297
f 1223 1235 1307
f 1223 1307 1298
f 1298 1307 1308
f 1307 1309 1308
f 1309 1299 1308
f 1299 1298 1308
f 1299 1309 1310
f 1299 1310 1300
f 1300 1310 1311
f 1300 1311 1301
f 1301 1311 1312
f 1301 1312 1302
f 1302 1312 1313
f 1302 1313 1303
f 1303 1313 1314
f 1303 1314 1304
f 1304 1314 1315
f 1314 1316 1315
f 1316 1305 1315
f 1305 1304 1315
f 1305 1316 1317
f 1305 1317 1306
f 1235 1245 1318
f 1235 1318 1307
f 1307 1318 1319
f 1307 1319 1309
f 1309 1319 1320
f 1309 1320 1310
f 1310 1320 1321
f 1310 1321 1311
f 1311 1321 1322
f 1311 1322 1312
f 1312 1322 1323
f 1312 1323 1313
f 1313 1323 1324
f 1313 1324 1314
f 1314 1324 1325
f 1314 1325 1316
f 1316 1325 1326
f 1316 1326 1317
f 1245 1257 1327
f 1245 1327 1318
f 1318 1327 1328
f 1318 1328 1319
f 1319 1328 1329
f 1319 1329 1320
f 1320 1329 1330
f 1329 1331 1330
f 1331 1321 1330
f 1321 1320 1330
f 1321 1331 1332
f 1321 1332 1322
f 1322 1332 1333
f 1332 1334 1333
f 1334 1323 1333
f 1323 1322 1333
f 1323 1334 1335
f 1323 1335 1324
f 1324 1335 1336
f 1324 1336 1325
f 1325 1336 1337
f 1325 1337 1326
f 1257 521 611
f 1257 611 1327
f 1327 611 613
f 1327 613 1328
f 1328 613 615
f 1328 615 1329
f 1329 615 617
f 1329 617 1331
f 1331 617 619
f 1331 619 1332
f 1332 619 621
f 1332 621 1334
f 1334 621 623
f 1334 623 1335
f 1335 623 625
f 1335 625 1336
f 1336 625 627
f 1336 627 1337
f 397 1338 1339
f 397 1339 394
f 399 1340 1338
f 399 1338 397
f 401 1341 1340
f 401 1340 399
f 403 1342 1341
f 403 1341 401
f 405 1343 1342
f 405 1342 403
f 407 1344 1343
f 407 1343 405
f 409 1345 1344
f 409 1344 407
f 411 1346 1345
f 411 1345 409
f 413 1347 1346
f 413 1346 411
f 1338 1348 1349
f 1338 1349 1339
f 1340 1350 1348
f 1340 1348 1338
f 1341 1351 1350
f 1341 1350 1340
f 1342 1352 1353
f 1352 1351 1353
f 1351 1341 1353
f 1341 1342 1353
f 1343 1354 1352
f 1343 1352 1342
f 1344 1355 1356
f 1355 1354 1356
f 1354 1343 1356
f 1343 1344 1356
f 1345 1357 1355
f 1345 1355 1344
f 1346 1358 1357
f 1346 1357 1345
f 1347 1359 1358
f 1347 1358 1346
f 1348 1360 1361
f 1348 1361 1349
f 1350 1362 1360
f 1350 1360 1348
f 1351 1363 1362
f 1351 1362 1350
f 1352 1364 1363
f 1352 1363 1351
f 1354 1365 1364
f 1354 1364 1352
f 1355 1366 1365
f 1355 1365 1354
f 1357 1367 1366
f 1357 1366 1355
f 1358 1368 1367
f 1358 1367 1357
f 1359 1369 1368
f 1359 1368 1358
f 1360 1370 1371
f 1360 1371 1361
f 1362 1372 1373
f 1372 1370 1373
f 1370 1360 1373
f 1360 1362 1373
f 1363 1374 1372
f 1363 1372 1362
f 1364 1375 1374
f 1364 1374 1363
f 1365 1376 1375
f 1365 1375 1364
f 1366 1377 1376
f 1366 1376 1365
f 1367 1378 1377
f 1367 1377 1366
f 1368 1379 1380
f 1379 1378 1380
f 1378 1367 1380
f 1367 1368 1380
f 1369 1381 1379
f 1369 1379 1368
f 1370 1382 1383
f 1370 1383 1371
f 1372 1384 1382
f 1372 1382 1370
f 1374 1385 1384
f 1374 1384 1372
f 1375 1386 1385
f 1375 1385 1374
f 1376 1387 1386
f 1376 1386 1375
f 1377 1388 1387
f 1377 1387 1376
f 1378 1389 1388
f 1378 1388 1377
f 1379 1390 1389
f 1379 1389 1378
f 1381 1391 1390
f 1381 1390 1379
f 1382 1392 1393
f 1382 1393 1383
f 1384 1394 1395
f 1394 1392 1395
f 1392 1382 1395
f 1382 1384 1395
f 1385 1396 1394
f 1385 1394 1384
f 1386 1397 1396
f 1386 1396 1385
f 1387 1398 1397
f 1387 1397 1386
f 1388 1399 1398
f 1388 1398 1387
f 1389 1400 1399
f 1389 1399 1388
f 1390 1401 1402
f 1401 1400 1402
f 1400 1389 1402
f 1389 1390 1402
f 1391 1403 1401
f 1391 1401 1390
f 1392 1404 1405
f 1392 1405 1393
f 1394 1406 1404
f 1394 1404 1392
f 1396 1407 1406
f 1396 1406 1394
f 1397 1408 1407
f 1397 1407 1396
f 1398 1409 1408
f 1398 1408 1397
f 1399 1410 1409
f 1399 1409 1398
f 1400 1411 1410
f 1400 1410 1399
f 1401 1412 1411
f 1401 1411 1400
f 1403 1413 1412
f 1403 1412 1401
f 1404 1414 1415
f 1404 1415 1405
f 1406 1416 1414
f 1406 1414 1404
f 1407 1417 1416
f 1407 1416 1406
f 1408 1418 1419
f 1418 1417 1419
f 1417 1407 1419
f 1407 1408 1419
f 1409 1420 1418
f 1409 1418 1408
f 1410 1421 1422
f 1421 1420 1422
f 1420 1409 1422
f 1409 1410 1422
f 1411 1423 1421
f 1411 1421 1410
f 1412 1424 1423
f 1412 1423 1411
f 1413 1425 1424
f 1413 1424 1412
f 1414 699 609
f 1414 609 1415
f 1416 700 699
f 1416 699 1414
f 1417 701 700
f 1417 700 1416
f 1418 702 701
f 1418 701 1417
f 1420 703 702
f 1420 702 1418
f 1421 704 703
f 1421 703 1420
f 1423 705 704
f 1423 704 1421
f 1424 706 705
f 1424 705 1423
f 1425 707 706
f 1425 706 1424
f 1081 1426 1427
f 1081 1427 1082
f 1083 1428 1426
f 1083 1426 1081
f 1084 1429 1428
f 1084 1428 1083
f 1085 1430 1429
f 1085 1429 1084
f 1086 1431 1430
f 1086 1430 1085
f 1087 1432 1431
f 1087 1431 1086
f 1088 1433 1432
f 1088 1432 1087
f 1089 1434 1433
f 1089 1433 1088
f 492 1435 1434
f 492 1434 1089
f 1426 1436 1437
f 1426 1437 1427
f 1428 1438 1436
f 1428 1436 1426
f 1429 1439 1438
f 1429 1438 1428
f 1430 1440 1441
f 1440 1439 1441
f 1439 1429 1441
f 1429 1430 1441
f 1431 1442 1440
f 1431 1440 1430
f 1432 1443 1444
f 1443 1442 1444
f 1442 1431 1444
f 1431 1432 1444
f 1433 1445 1443
f 1433 1443 1432
f 1434 1446 1445
f 1434 1445 1433
f 1435 1447 1446
f 1435 1446 1434
f 1436 1448 1449
f 1436 1449 1437
f 1438 1450 1448
f 1438 1448 1436
f 1439 1451 1450
f 1439 1450 1438
f 1440 1452 1451
f 1440 1451 1439
f 1442 1453 1452
f 1442 1452 1440
f 1443 1454 1453
f 1443 1453 1442
f 1445 1455 1454
f 1445 1454 1443
f 1446 1456 1455
f 1446 1455 1445
f 1447 1457 1456
f 1447 1456 1446
f 1448 1458 1459
f 1448 1459 1449
f 1450 1460 1461
f 1460 1458 1461
f 1458 1448 1461
f 1448 1450 1461
f 1451 1462 1460
f 1451 1460 1450
f 1452 1463 1462
f 1452 1462 1451
f 1453 1464 1463
f 1453 1463 1452
f 1454 1465 1464
f 1454 1464 1453
f 1455 1466 1465
f 1455 1465 1454
f 1456 1467 1468
f 1467 1466 1468
f 1466 1455 1468
f 1455 1456 1468
f 1457 1469 1467
f 1457 1467 1456
f 1458 1470 1471
f 1458 1471 1459
f 1460 1472 1470
f 1460 1470 1458
f 1462 1473 1472
f 1462 1472 1460
f 1463 1474 1473
f 1463 1473 1462
f 1464 1475 1474
f 1464 1474 1463
f 1465 1476 1475
f 1465 1475 1464
f 1466 1477 1476
f 1466 1476 1465
f 1467 1478 1477
f 1467 1477 1466
f 1469 1479 1478
f 1469 1478 1467
f 1470 1480 1481
f 1470 1481 1471
f 1472 1482 1483
f 1482 1480 1483
f 1480 1470 1483
f 1470 1472 1483
f 1473 1484 1482
f 1473 1482 1472
f 1474 1485 1484
f 1474 1484 1473
f 1475 1486 1485
f 1475 1485 1474
f 1476 1487 1486
f 1476 1486 1475
f 1477 1488 1487
f 1477 1487 1476
f 1478 1489 1490
f 1489 1488 1490
f 1488 1477 1490
f 1477 1478 1490
f 1479 1491 1489
f 1479 1489 1478
f 1480 1492 1493
f 1480 1493 1481
f 1482 1494 1492
f 1482 1492 1480
f 1484 1495 1494
f 1484 1494 1482
f 1485 1496 1495
f 1485 1495 1484
f 1486 1497 1496
f 1486 1496 1485
f 1487 1498 1497
f 1487 1497 1486
f 1488 1499 1498
f 1488 1498 1487
f 1489 1500 1499
f 1489 1499 1488
f 1491 1501 1500
f 1491 1500 1489
f 1492 1502 1503
f 1492 1503 1493
f 1494 1504 1502
f 1494 1502 1492
f 1495 1505 1504
f 1495 1504 1494
f 1496 1506 1507
f 1506 1505 1507
f 1505 1495 1507
f 1495 1496 1507
f 1497 1508 1506
f 1497 1506 1496
f 1498 1509 1510
f 1509 1508 1510
f 1508 1497 1510
f 1497 1498 1510
f 1499 1511 1509
f 1499 1509 1498
f 1500 1512 1511
f 1500 1511 1499
f 1501 1513 1512
f 1501 1512 1500
f 1502 797 796
f 1502 796 1503
f 1504 798 797
f 1504 797 1502
f 1505 799 798
f 1505 798 1504
f 1506 800 799
f 1506 799 1505
f 1508 801 800
f 1508 800 1506
f 1509 802 801
f 1509 801 1508
f 1511 803 802
f 1511 802 1509
f 1512 804 803
f 1512 803 1511
f 1513 805 804
f 1513 804 1512
f 3 1514 806
f 3 806 4
f 22 1515 1514
f 22 1514 3
f 34 1516 1515
f 34 1515 22
f 44 1517 1516
f 44 1516 34
f 56 1518 1517
f 56 1517 44
f 66 1519 1518
f 66 1518 56
f 78 1520 1519
f 78 1519 66
f 88 1521 1520
f 88 1520 78
f 100 1522 1521
f 100 1521 88
f 1514 1523 816
f 1514 816 806
f 1515 1524 1523
f 1515 1523 1514
f 1516 1525 1524
f 1516 1524 1515
f 1517 1526 1527
f 1526 1525 1527
f 1525 1516 1527
f 1516 1517 1527
f 1518 1528 1526
f 1518 1526 1517
f 1519 1529 1530
f 1529 1528 1530
f 1528 1518 1530
f 1518 1519 1530
f 1520 1531 1529
f 1520 1529 1519
f 1521 1532 1531
f 1521 1531 1520
f 1522 1533 1532
f 1522 1532 1521
f 1523 1534 828
f 1523 828 816
f 1524 1535 1534
f 1524 1534 1523
f 1525 1536 1535
f 1525 1535 1524
f 1526 1537 1536
f 1526 1536 1525
f 1528 1538 1537
f 1528 1537 1526
f 1529 1539 1538
f 1529 1538 1528
f 1531 1540 1539
f 1531 1539 1529
f 1532 1541 1540
f 1532 1540 1531
f 1533 1542 1541
f 1533 1541 1532
f 1534 1543 838
f 1534 838 828
f 1535 1544 1545
f 1544 1543 1545
f 1543 1534 1545
f 1534 1535 1545
f 1536 1546 1544
f 1536 1544 1535
f 1537 1547 1546
f 1537 1546 1536
f 1538 1548 1547
f 1538 1547 1537
f 1539 1549 1548
f 1539 1548 1538
f 1540 1550 1549
f 1540 1549 1539
f 1541 1551 1552
f 1551 1550 1552
f 1550 1540 1552
f 1540 1541 1552
f 1542 1553 1551
f 1542 1551 1541
f 1543 1554 850
f 1543 850 838
f 1544 1555 1554
f 1544 1554 1543
f 1546 1556 1555
f 1546 1555 1544
f 1547 1557 1556
f 1547 1556 1546
f 1548 1558 1557
f 1548 1557 1547
f 1549 1559 1558
f 1549 1558 1548
f 1550 1560 1559
f 1550 1559 1549
f 1551 1561 1560
f 1551 1560 1550
f 1553 1562 1561
f 1553 1561 1551
f 1554 1563 860
f 1554 860 850
f 1555 1564 1565
f 1564 1563 1565
f 1563 1554 1565
f 1554 1555 1565
f 1556 1566 1564
f 1556 1564 1555
f 1557 1567 1566
f 1557 1566 1556
f 1558 1568 1567
f 1558 1567 1557
f 1559 1569 1568
f 1559 1568 1558
f 1560 1570 1569
f 1560 1569 1559
f 1561 1571 1572
f 1571 1570 1572
f 1570 1560 1572
f 1560 1561 1572
f 1562 1573 1571
f 1562 1571 1561
f 1563 1574 872
f 1563 872 860
f 1564 1575 1574
f 1564 1574 1563
f 1566 1576 1575
f 1566 1575 1564
f 1567 1577 1576
f 1567 1576 1566
f 1568 1578 1577
f 1568 1577 1567
f 1569 1579 1578
f 1569 1578 1568
f 1570 1580 1579
f 1570 1579 1569
f 1571 1581 1580
f 1571 1580 1570
f 1573 1582 1581
f 1573 1581 1571
f 1574 1583 882
f 1574 882 872
f 1575 1584 1583
f 1575 1583 1574
f 1576 1585 1584
f 1576 1584 1575
f 1577 1586 1587
f 1586 1585 1587
f 1585 1576 1587
f 1576 1577 1587
f 1578 1588 1586
f 1578 1586 1577
f 1579 1589 1590
f 1589 1588 1590
f 1588 1578 1590
f 1578 1579 1590
f 1580 1591 1589
f 1580 1589 1579
f 1581 1592 1591
f 1581 1591 1580
f 1582 1593 1592
f 1582 1592 1581
f 1583 1594 894
f 1583 894 882
f 1584 1595 1594
f 1584 1594 1583
f 1585 1596 1595
f 1585 1595 1584
f 1586 1597 1596
f 1586 1596 1585
f 1588 1598 1597
f 1588 1597 1586
f 1589 1599 1598
f 1589 1598 1588
f 1591 1600 1599
f 1591 1599 1589
f 1592 1601 1600
f 1592 1600 1591
f 1593 1602 1601
f 1593 1601 1592
f 125 912 1603
f 125 1603 126
f 126 1603 1604
f 126 1604 137
f 137 1604 1605
f 137 1605 146
f 146 1605 1606
f 146 1606 157
f 157 1606 1607
f 157 1607 166
f 166 1607 1608
f 166 1608 177
f 177 1608 1609
f 177 1609 186
f 186 1609 1610
f 186 1610 197
f 197 1610 1611
f 197 1611 206
f 912 923 1612
f 912 1612 1603
f 1603 1612 1613
f 1603 1613 1604
f 1604 1613 1614
f 1604 1614 1605
f 1605 1614 1615
f 1614 1616 1615
f 1616 1606 1615
f 1606 1605 1615
f 1606 1616 1617
f 1606 1617 1607
f 1607 1617 1618
f 1617 1619 1618
f 1619 1608 1618
f 1608 1607 1618
f 1608 1619 1620
f 1608 1620 1609
f 1609 1620 1621
f 1609 1621 1610
f 1610 1621 1622
f 1610 1622 1611
f 923 932 1623
f 923 1623 1612
f 1612 1623 1624
f 1612 1624 1613
f 1613 1624 1625
f 1613 1625 1614
f 1614 1625 1626
f 1614 1626 1616
f 1616 1626 1627
f 1616 1627 1617
f 1617 1627 1628
f 1617 1628 1619
f 1619 1628 1629
f 1619 1629 1620
f 1620 1629 1630
f 1620 1630 1621
f 1621 1630 1631
f 1621 1631 1622
f 932 943 1632
f 932 1632 1623
f 1623 1632 1633
f 1632 1634 1633
f 1634 1624 1633
f 1624 1623 1633
f 1624 1634 1635
f 1624 1635 1625
f 1625 1635 1636
f 1625 1636 1626
f 1626 1636 1637
f 1626 1637 1627
f 1627 1637 1638
f 1627 1638 1628
f 1628 1638 1639
f 1628 1639 1629
f 1629 1639 1640
f 1639 1641 1640
f 1641 1630 1640
f 1630 1629 1640
f 1630 1641 1642
f 1630 1642 1631
f 943 952 1643
f 943 1643 1632
f 1632 1643 1644
f 1632 1644 1634
f 1634 1644 1645
f 1634 1645 1635
f 1635 1645 1646
f 1635 1646 1636
f 1636 1646 1647
f 1636 1647 1637
f 1637 1647 1648
f 1637 1648 1638
f 1638 1648 1649
f 1638 1649 1639
f 1639 1649 1650
f 1639 1650 1641
f 1641 1650 1651
f 1641 1651 1642
f 952 963 1652
f 952 1652 1643
f 1643 1652 1653
f 1652 1654 1653
f 1654 1644 1653
f 1644 1643 1653
f 1644 1654 1655
f 1644 1655 1645
f 1645 1655 1656
f 1645 1656 1646
f 1646 1656 1657
f 1646 1657 1647
f 1647 1657 1658
f 1647 1658 1648
f 1648 1658 1659
f 1648 1659 1649
f 1649 1659 1660
f 1659 1661 1660
f 1661 1650 1660
f 1650 1649 1660
f 1650 1661 1662
f 1650 1662 1651
f 963 972 1663
f 963 1663 1652
f 1652 1663 1664
f 1652 1664 1654
f 1654 1664 1665
f 1654 1665 1655
f 1655 1665 1666
f 1655 1666 1656
f 1656 1666 1667
f 1656 1667 1657
f 1657 1667 1668
f 1657 1668 1658
f 1658 1668 1669
f 1658 1669 1659
f 1659 1669 1670
f 1659 1670 1661
f 1661 1670 1671
f 1661 1671 1662
f 972 983 1672
f 972 1672 1663
f 1663 1672 1673
f 1663 1673 1664
f 1664 1673 1674
f 1664 1674 1665
f 1665 1674 1675
f 1674 1676 1675
f 1676 1666 1675
f 1666 1665 1675
f 1666 1676 1677
f 1666 1677 1667
f 1667 1677 1678
f 1677 1679 1678
f 1679 1668 1678
f 1668 1667 1678
f 1668 1679 1680
f 1668 1680 1669
f 1669 1680 1681
f 1669 1681 1670
f 1670 1681 1682
f 1670 1682 1671
f 983 992 1683
f 983 1683 1672
f 1672 1683 1684
f 1672 1684 1673
f 1673 1684 1685
f 1673 1685 1674
f 1674 1685 1686
f 1674 1686 1676
f 1676 1686 1687
f 1676 1687 1677
f 1677 1687 1688
f 1677 1688 1679
f 1679 1688 1689
f 1679 1689 1680
f 1680 1689 1690
f 1680 1690 1681
f 1681 1690 413
f 1681 413 1682
f 208 1691 1522
f 208 1522 100
f 218 1692 1691
f 218 1691 208
f 230 1693 1692
f 230 1692 218
f 240 1694 1693
f 240 1693 230
f 252 1695 1694
f 252 1694 240
f 262 1696 1695
f 262 1695 252
f 274 1697 1696
f 274 1696 262
f 284 1698 1697
f 284 1697 274
f 296 994 1698
f 296 1698 284
f 1691 1699 1533
f 1691 1533 1522
f 1692 1700 1699
f 1692 1699 1691
f 1693 1701 1700
f 1693 1700 1692
f 1694 1702 1703
f 1702 1701 1703
f 1701 1693 1703
f 1693 1694 1703
f 1695 1704 1702
f 1695 1702 1694
f 1696 1705 1706
f 1705 1704 1706
f 1704 1695 1706
f 1695 1696 1706
f 1697 1707 1705
f 1697 1705 1696
f 1698 1708 1707
f 1698 1707 1697
f 994 1004 1708
f 994 1708 1698
f 1699 1709 1542
f 1699 1542 1533
f 1700 1710 1709
f 1700 1709 1699
f 1701 1711 1710
f 1701 1710 1700
f 1702 1712 1711
f 1702 1711 1701
f 1704 1713 1712
f 1704 1712 1702
f 1705 1714 1713
f 1705 1713 1704
f 1707 1715 1714
f 1707 1714 1705
f 1708 1716 1715
f 1708 1715 1707
f 1004 1016 1716
f 1004 1716 1708
f 1709 1717 1553
f 1709 1553 1542
f 1710 1718 1719
f 1718 1717 1719
f 1717 1709 1719
f 1709 1710 1719
f 1711 1720 1718
f 1711 1718 1710
f 1712 1721 1720
f 1712 1720 1711
f 1713 1722 1721
f 1713 1721 1712
f 1714 1723 1722
f 1714 1722 1713
f 1715 1724 1723
f 1715 1723 1714
f 1716 1725 1726
f 1725 1724 1726
f 1724 1715 1726
f 1715 1716 1726
f 1016 1026 1725
f 1016 1725 1716
f 1717 1727 1562
f 1717 1562 1553
f 1718 1728 1727
f 1718 1727 1717
f 1720 1729 1728
f 1720 1728 1718
f 1721 1730 1729
f 1721 1729 1720
f 1722 1731 1730
f 1722 1730 1721
f 1723 1732 1731
f 1723 1731 1722
f 1724 1733 1732
f 1724 1732 1723
f 1725 1734 1733
f 1725 1733 1724
f 1026 1038 1734
f 1026 1734 1725
f 1727 1735 1573
f 1727 1573 1562
f 1728 1736 1737
f 1736 1735 1737
f 1735 1727 1737
f 1727 1728 1737
f 1729 1738 1736
f 1729 1736 1728
f 1730 1739 1738
f 1730 1738 1729
f 1731 1740 1739
f 1731 1739 1730
f 1732 1741 1740
f 1732 1740 1731
f 1733 1742 1741
f 1733 1741 1732
f 1734 1743 1744
f 1743 1742 1744
f 1742 1733 1744
f 1733 1734 1744
f 1038 1048 1743
f 1038 1743 1734
f 1735 1745 1582
f 1735 1582 1573
f 1736 1746 1745
f 1736 1745 1735
f 1738 1747 1746
f 1738 1746 1736
f 1739 1748 1747
f 1739 1747 1738
f 1740 1749 1748
f 1740 1748 1739
f 1741 1750 1749
f 1741 1749 1740
f 1742 1751 1750
f 1742 1750 1741
f 1743 1752 1751
f 1743 1751 1742
f 1048 1060 1752
f 1048 1752 1743
f 1745 1753 1593
f 1745 1593 1582
f 1746 1754 1753
f 1746 1753 1745
f 1747 1755 1754
f 1747 1754 1746
f 1748 1756 1757
f 1756 1755 1757
f 1755 1747 1757
f 1747 1748 1757
f 1749 1758 1756
f 1749 1756 1748
f 1750 1759 1760
f 1759 1758 1760
f 1758 1749 1760
f 1749 1750 1760
f 1751 1761 1759
f 1751 1759 1750
f 1752 1762 1761
f 1752 1761 1751
f 1060 1070 1762
f 1060 1762 1752
f 1753 1763 1602
f 1753 1602 1593
f 1754 1764 1763
f 1754 1763 1753
f 1755 1765 1764
f 1755 1764 1754
f 1756 1766 1765
f 1756 1765 1755
f 1758 1767 1766
f 1758 1766 1756
f 1759 1768 1767
f 1759 1767 1758
f 1761 1769 1768
f 1761 1768 1759
f 1762 1770 1769
f 1762 1769 1761
f 1070 1082 1770
f 1070 1770 1762
f 206 1611 1771
f 206 1771 313
f 313 1771 1772
f 313 1772 324
f 324 1772 1773
f 324 1773 333
f 333 1773 1774
f 333 1774 344
f 344 1774 1775
f 344 1775 353
f 353 1775 1776
f 353 1776 364
f 364 1776 1777
f 364 1777 373
f 373 1777 1778
f 373 1778 384
f 384 1778 1098
f 384 1098 393
f 1611 1622 1779
f 1611 1779 1771
f 1771 1779 1780
f 1771 1780 1772
f 1772 1780 1781
f 1772 1781 1773
f 1773 1781 1782
f 1781 1783 1782
f 1783 1774 1782
f 1774 1773 1782
f 1774 1783 1784
f 1774 1784 1775
f 1775 1784 1785
f 1784 1786 1785
f 1786 1776 1785
f 1776 1775 1785
f 1776 1786 1787
f 1776 1787 1777
f 1777 1787 1788
f 1777 1788 1778
f 1778 1788 1109
f 1778 1109 1098
f 1622 1631 1789
f 1622 1789 1779
f 1779 1789 1790
f 1779 1790 1780
f 1780 1790 1791
f 1780 1791 1781
f 1781 1791 1792
f 1781 1792 1783
f 1783 1792 1793
f 1783 1793 1784
f 1784 1793 1794
f 1784 1794 1786
f 1786 1794 1795
f 1786 1795 1787
f 1787 1795 1796
f 1787 1796 1788
f 1788 1796 1118
f 1788 1118 1109
f 1631 1642 1797
f 1631 1797 1789
f 1789 1797 1798
f 1797 1799 1798
f 1799 1790 1798
f 1790 1789 1798
f 1790 1799 1800
f 1790 1800 1791
f 1791 1800 1801
f 1791 1801 1792
f 1792 1801 1802
f 1792 1802 1793
f 1793 1802 1803
f 1793 1803 1794
f 1794 1803 1804
f 1794 1804 1795
f 1795 1804 1805
f 1804 1806 1805
f 1806 1796 1805
f 1796 1795 1805
f 1796 1806 1129
f 1796 1129 1118
f 1642 1651 1807
f 1642 1807 1797
f 1797 1807 1808
f 1797 1808 1799
f 1799 1808 1809
f 1799 1809 1800
f 1800 1809 1810
f 1800 1810 1801
f 1801 1810 1811
f 1801 1811 1802
f 1802 1811 1812
f 1802 1812 1803
f 1803 1812 1813
f 1803 1813 1804
f 1804 1813 1814
f 1804 1814 1806
f 1806 1814 1138
f 1806 1138 1129
f 1651 1662 1815
f 1651 1815 1807
f 1807 1815 1816
f 1815 1817 1816
f 1817 1808 1816
f 1808 1807 1816
f 1808 1817 1818
f 1808 1818 1809
f 1809 1818 1819
f 1809 1819 1810
f 1810 1819 1820
f 1810 1820 1811
f 1811 1820 1821
f 1811 1821 1812
f 1812 1821 1822
f 1812 1822 1813
f 1813 1822 1823
f 1822 1824 1823
f 1824 1814 1823
f 1814 1813 1823
f 1814 1824 1149
f 1814 1149 1138
f 1662 1671 1825
f 1662 1825 1815
f 1815 1825 1826
f 1815 1826 1817
f 1817 1826 1827
f 1817 1827 1818
f 1818 1827 1828
f 1818 1828 1819
f 1819 1828 1829
f 1819 1829 1820
f 1820 1829 1830
f 1820 1830 1821
f 1821 1830 1831
f 1821 1831 1822
f 1822 1831 1832
f 1822 1832 1824
f 1824 1832 1158
f 1824 1158 1149
f 1671 1682 1833
f 1671 1833 1825
f 1825 1833 1834
f 1825 1834 1826
f 1826 1834 1835
f 1826 1835 1827
f 1827 1835 1836
f 1835 1837 1836
f 1837 1828 1836
f 1828 1827 1836
f 1828 1837 1838
f 1828 1838 1829
f 1829 1838 1839
f 1838 1840 1839
f 1840 1830 1839
f 1830 1829 1839
f 1830 1840 1841
f 1830 1841 1831
f 1831 1841 1842
f 1831 1842 1832
f 1832 1842 1169
f 1832 1169 1158
f 1682 413 412
f 1682 412 1833
f 1833 412 425
f 1833 425 1834
f 1834 425 435
f 1834 435 1835
f 1835 435 447
f 1835 447 1837
f 1837 447 457
f 1837 457 1838
f 1838 457 469
f 1838 469 1840
f 1840 469 479
f 1840 479 1841
f 1841 479 491
f 1841 491 1842
f 1842 491 501
f 1842 501 1169
f 1594 1843 1170
f 1594 1170 894
f 1595 1844 1843
f 1595 1843 1594
f 1596 1845 1844
f 1596 1844 1595
f 1597 1846 1845
f 1597 1845 1596
f 1598 1847 1846
f 1598 1846 1597
f 1599 1848 1847
f 1599 1847 1598
f 1600 1849 1848
f 1600 1848 1599
f 1601 1850 1849
f 1601 1849 1600
f 1602 1851 1850
f 1602 1850 1601
f 1843 1852 1180
f 1843 1180 1170
f 1844 1853 1852
f 1844 1852 1843
f 1845 1854 1853
f 1845 1853 1844
f 1846 1855 1856
f 1855 1854 1856
f 1854 1845 1856
f 1845 1846 1856
f 1847 1857 1855
f 1847 1855 1846
f 1848 1858 1859
f 1858 1857 1859
f 1857 1847 1859
f 1847 1848 1859
f 1849 1860 1858
f 1849 1858 1848
f 1850 1861 1860
f 1850 1860 1849
f 1851 1862 1861
f 1851 1861 1850
f 1852 1863 1192
f 1852 1192 1180
f 1853 1864 1863
f 1853 1863 1852
f 1854 1865 1864
f 1854 1864 1853
f 1855 1866 1865
f 1855 1865 1854
f 1857 1867 1866
f 1857 1866 1855
f 1858 1868 1867
f 1858 1867 1857
f 1860 1869 1868
f 1860 1868 1858
f 1861 1870 1869
f 1861 1869 1860
f 1862 1871 1870
f 1862 1870 1861
f 1863 1872 1202
f 1863 1202 1192
f 1864 1873 1874
f 1873 1872 1874
f 1872 1863 1874
f 1863 1864 1874
f 1865 1875 1873
f 1865 1873 1864
f 1866 1876 1875
f 1866 1875 1865
f 1867 1877 1876
f 1867 1876 1866
f 1868 1878 1877
f 1868 1877 1867
f 1869 1879 1878
f 1869 1878 1868
f 1870 1880 1881
f 1880 1879 1881
f 1879 1869 1881
f 1869 1870 1881
f 1871 1882 1880
f 1871 1880 1870
f 1872 1883 1214
f 1872 1214 1202
f 1873 1884 1883
f 1873 1883 1872
f 1875 1885 1884
f 1875 1884 1873
f 1876 1886 1885
f 1876 1885 1875
f 1877 1887 1886
f 1877 1886 1876
f 1878 1888 1887
f 1878 1887 1877
f 1879 1889 1888
f 1879 1888 1878
f 1880 1890 1889
f 1880 1889 1879
f 1882 1891 1890
f 1882 1890 1880
f 1883 1892 1224
f 1883 1224 1214
f 1884 1893 1894
f 1893 1892 1894
f 1892 1883 1894
f 1883 1884 1894
f 1885 1895 1893
f 1885 1893 1884
f 1886 1896 1895
f 1886 1895 1885
f 1887 1897 1896
f 1887 1896 1886
f 1888 1898 1897
f 1888 1897 1887
f 1889 1899 1898
f 1889 1898 1888
f 1890 1900 1901
f 1900 1899 1901
f 1899 1889 1901
f 1889 1890 1901
f 1891 1902 1900
f 1891 1900 1890
f 1892 1903 1236
f 1892 1236 1224
f 1893 1904 1903
f 1893 1903 1892
f 1895 1905 1904
f 1895 1904 1893
f 1896 1906 1905
f 1896 1905 1895
f 1897 1907 1906
f 1897 1906 1896
f 1898 1908 1907
f 1898 1907 1897
f 1899 1909 1908
f 1899 1908 1898
f 1900 1910 1909
f 1900 1909 1899
f 1902 1911 1910
f 1902 1910 1900
f 1903 1912 1246
f 1903 1246 1236
f 1904 1913 1912
f 1904 1912 1903
f 1905 1914 1913
f 1905 1913 1904
f 1906 1915 1916
f 1915 1914 1916
f 1914 1905 1916
f 1905 1906 1916
f 1907 1917 1915
f 1907 1915 1906
f 1908 1918 1919
f 1918 1917 1919
f 1917 1907 1919
f 1907 1908 1919
f 1909 1920 1918
f 1909 1918 1908
f 1910 1921 1920
f 1910 1920 1909
f 1911 1922 1921
f 1911 1921 1910
f 1912 503 502
f 1912 502 1246
f 1913 522 503
f 1913 503 1912
f 1914 534 522
f 1914 522 1913
f 1915 544 534
f 1915 534 1914
f 1917 556 544
f 1917 544 1915
f 1918 566 556
f 1918 556 1917
f 1920 578 566
f 1920 566 1918
f 1921 588 578
f 1921 578 1920
f 1922 600 588
f 1922 588 1921
f 992 1266 1923
f 992 1923 1683
f 1683 1923 1924
f 1683 1924 1684
f 1684 1924 1925
f 1684 1925 1685
f 1685 1925 1926
f 1685 1926 1686
f 1686 1926 1927
f 1686 1927 1687
f 1687 1927 1928
f 1687 1928 1688
f 1688 1928 1929
f 1688 1929 1689
f 1689 1929 1930
f 1689 1930 1690
f 1690 1930 1347
f 1690 1347 413
f 1266 1277 1931
f 1266 1931 1923
f 1923 1931 1932
f 1923 1932 1924
f 1924 1932 1933
f 1924 1933 1925
f 1925 1933 1934
f 1933 1935 1934
f 1935 1926 1934
f 1926 1925 1934
f 1926 1935 1936
f 1926 1936 1927
f 1927 1936 1937
f 1936 1938 1937
f 1938 1928 1937
f 1928 1927 1937
f 1928 1938 1939
f 1928 1939 1929
f 1929 1939 1940
f 1929 1940 1930
f 1930 1940 1359
f 1930 1359 1347
f 1277 1286 1941
f 1277 1941 1931
f 1931 1941 1942
f 1931 1942 1932
f 1932 1942 1943
f 1932 1943 1933
f 1933 1943 1944
f 1933 1944 1935
f 1935 1944 1945
f 1935 1945 1936
f 1936 1945 1946
f 1936 1946 1938
f 1938 1946 1947
f 1938 1947 1939
f 1939 1947 1948
f 1939 1948 1940
f 1940 1948 1369
f 1940 1369 1359
f 1286 1297 1949
f 1286 1949 1941
f 1941 1949 1950
f 1949 1951 1950
f 1951 1942 1950
f 1942 1941 1950
f 1942 1951 1952
f 1942 1952 1943
f 1943 1952 1953
f 1943 1953 1944
f 1944 1953 1954
f 1944 1954 1945
f 1945 1954 1955
f 1945 1955 1946
f 1946 1955 1956
f 1946 1956 1947
f 1947 1956 1957
f 1956 1958 1957
f 1958 1948 1957
f 1948 1947 1957
f 1948 1958 1381
f 1948 1381 1369
f 1297 1306 1959
f 1297 1959 1949
f 1949 1959 1960
f 1949 1960 1951
f 1951 1960 1961
f 1951 1961 1952
f 1952 1961 1962
f 1952 1962 1953
f 1953 1962 1963
f 1953 1963 1954
f 1954 1963 1964
f 1954 1964 1955
f 1955 1964 1965
f 1955 1965 1956
f 1956 1965 1966
f 1956 1966 1958
f 1958 1966 1391
f 1958 1391 1381
f 1306 1317 1967
f 1306 1967 1959
f 1959 1967 1968
f 1967 1969 1968
f 1969 1960 1968
f 1960 1959 1968
f 1960 1969 1970
f 1960 1970 1961
f 1961 1970 1971
f 1961 1971 1962
f 1962 1971 1972
f 1962 1972 1963
f 1963 1972 1973
f 1963 1973 1964
f 1964 1973 1974
f 1964 1974 1965
f 1965 1974 1975
f 1974 1976 1975
f 1976 1966 1975
f 1966 1965 1975
f 1966 1976 1403
f 1966 1403 1391
f 1317 1326 1977
f 1317 1977 1967
f 1967 1977 1978
f 1967 1978 1969
f 1969 1978 1979
f 1969 1979 1970
f 1970 1979 1980
f 1970 1980 1971
f 1971 1980 1981
f 1971 1981 1972
f 1972 1981 1982
f 1972 1982 1973
f 1973 1982 1983
f 1973 1983 1974
f 1974 1983 1984
f 1974 1984 1976
f 1976 1984 1413
f 1976 1413 1403
f 1326 1337 1985
f 1326 1985 1977
f 1977 1985 1986
f 1977 1986 1978
f 1978 1986 1987
f 1978 1987 1979
f 1979 1987 1988
f 1987 1989 1988
f 1989 1980 1988
f 1980 1979 1988
f 1980 1989 1990
f 1980 1990 1981
f 1981 1990 1991
f 1990 1992 1991
f 1992 1982 1991
f 1982 1981 1991
f 1982 1992 1993
f 1982 1993 1983
f 1983 1993 1994
f 1983 1994 1984
f 1984 1994 1425
f 1984 1425 1413
f 1337 627 626
f 1337 626 1985
f 1985 626 638
f 1985 638 1986
f 1986 638 647
f 1986 647 1987
f 1987 647 658
f 1987 658 1989
f 1989 658 667
f 1989 667 1990
f 1990 667 678
f 1990 678 1992
f 1992 678 687
f 1992 687 1993
f 1993 687 698
f 1993 698 1994
f 1994 698 707
f 1994 707 1425
f 1763 1995 1851
f 1763 1851 1602
f 1764 1996 1995
f 1764 1995 1763
f 1765 1997 1996
f 1765 1996 1764
f 1766 1998 1997
f 1766 1997 1765
f 1767 1999 1998
f 1767 1998 1766
f 1768 2000 1999
f 1768 1999 1767
f 1769 2001 2000
f 1769 2000 1768
f 1770 2002 2001
f 1770 2001 1769
f 1082 1427 2002
f 1082 2002 1770
f 1995 2003 1862
f 1995 1862 1851
f 1996 2004 2003
f 1996 2003 1995
f 1997 2005 2004
f 1997 2004 1996
f 1998 2006 2007
f 2006 2005 2007
f 2005 1997 2007
f 1997 1998 2007
f 1999 2008 2006
f 1999 2006 1998
f 2000 2009 2010
f 2009 2008 2010
f 2008 1999 2010
f 1999 2000 2010
f 2001 2011 2009
f 2001 2009 2000
f 2002 2012 2011
f 2002 2011 2001
f 1427 1437 2012
f 1427 2012 2002
f 2003 2013 1871
f 2003 1871 1862
f 2004 2014 2013
f 2004 2013 2003
f 2005 2015 2014
f 2005 2014 2004
f 2006 2016 2015
f 2006 2015 2005
f 2008 2017 2016
f 2008 2016 2006
f 2009 2018 2017
f 2009 2017 2008
f 2011 2019 2018
f 2011 2018 2009
f 2012 2020 2019
f 2012 2019 2011
f 1437 1449 2020
f 1437 2020 2012
f 2013 2021 1882
f 2013 1882 1871
f 2014 2022 2023
f 2022 2021 2023
f 2021 2013 2023
f 2013 2014 2023
f 2015 2024 2022
f 2015 2022 2014
f 2016 2025 2024
f 2016 2024 2015
f 2017 2026 2025
f 2017 2025 2016
f 2018 2027 2026
f 2018 2026 2017
f 2019 2028 2027
f 2019 2027 2018
f 2020 2029 2030
f 2029 2028 2030
f 2028 2019 2030
f 2019 2020 2030
f 1449 1459 2029
f 1449 2029 2020
f 2021 2031 1891
f 2021 1891 1882
f 2022 2032 2031
f 2022 2031 2021
f 2024 2033 2032
f 2024 2032 2022
f 2025 2034 2033
f 2025 2033 2024
f 2026 2035 2034
f 2026 2034 2025
f 2027 2036 2035
f 2027 2035 2026
f 2028 2037 2036
f 2028 2036 2027
f 2029 2038 2037
f 2029 2037 2028
f 1459 1471 2038
f 1459 2038 2029
f 2031 2039 1902
f 2031 1902 1891
f 2032 2040 2041
f 2040 2039 2041
f 2039 2031 2041
f 2031 2032 2041
f 2033 2042 2040
f 2033 2040 2032
f 2034 2043 2042
f 2034 2042 2033
f 2035 2044 2043
f 2035 2043 2034
f 2036 2045 2044
f 2036 2044 2035
f 2037 2046 2045
f 2037 2045 2036
f 2038 2047 2048
f 2047 2046 2048
f 2046 2037 2048
f 2037 2038 2048
f 1471 1481 2047
f 1471 2047 2038
f 2039 2049 1911
f 2039 1911 1902
f 2040 2050 2049
f 2040 2049 2039
f 2042 2051 2050
f 2042 2050 2040
f 2043 2052 2051
f 2043 2051 2042
f 2044 2053 2052
f 2044 2052 2043
f 2045 2054 2053
f 2045 2053 2044
f 2046 2055 2054
f 2046 2054 2045
f 2047 2056 2055
f 2047 2055 2046
f 1481 1493 2056
f 1481 2056 2047
f 2049 2057 1922
f 2049 1922 1911
f 2050 2058 2057
f 2050 2057 2049
f 2051 2059 2058
f 2051 2058 2050
f 2052 2060 2061
f 2060 2059 2061
f 2059 2051 2061
f 2051 2052 2061
f 2053 2062 2060
f 2053 2060 2052
f 2054 2063 2064
f 2063 2062 2064
f 2062 2053 2064
f 2053 2054 2064
f 2055 2065 2063
f 2055 2063 2054
f 2056 2066 2065
f 2056 2065 2055
f 1493 1503 2066
f 1493 2066 2056
f 2057 708 600
f 2057 600 1922
f 2058 718 708
f 2058 708 2057
f 2059 730 718
f 2059 718 2058
f 2060 740 730
f 2060 730 2059
f 2062 752 740
f 2062 740 2060
f 2063 762 752
f 2063 752 2062
f 2065 774 762
f 2065 762 2063
f 2066 784 774
f 2066 774 2065
f 1503 796 784
f 1503 784 2066
f 394 1339 2067
f 394 2067 395
f 395 2067 2068
f 395 2068 414
f 414 2068 2069
f 414 2069 426
f 426 2069 2070
f 426 2070 436
f 436 2070 2071
f 436 2071 448
f 448 2071 2072
f 448 2072 458
f 458 2072 2073
f 458 2073 470
f 470 2073 2074
f 470 2074 480
f 480 2074 1435
f 480 1435 492
f 1339 1349 2075
f 1339 2075 2067
f 2067 2075 2076
f 2067 2076 2068
f 2068 2076 2077
f 2068 2077 2069
f 2069 2077 2078
f 2077 2079 2078
f 2079 2070 2078
f 2070 2069 2078
f 2070 2079 2080
f 2070 2080 2071
f 2071 2080 2081
f 2080 2082 2081
f 2082 2072 2081
f 2072 2071 2081
f 2072 2082 2083
f 2072 2083 2073
f 2073 2083 2084
f 2073 2084 2074
f 2074 2084 1447
f 2074 1447 1435
f 1349 1361 2085
f 1349 2085 2075
f 2075 2085 2086
f 2075 2086 2076
f 2076 2086 2087
f 2076 2087 2077
f 2077 2087 2088
f 2077 2088 2079
f 2079 2088 2089
f 2079 2089 2080
f 2080 2089 2090
f 2080 2090 2082
f 2082 2090 2091
f 2082 2091 2083
f 2083 2091 2092
f 2083 2092 2084
f 2084 2092 1457
f 2084 1457 1447
f 1361 1371 2093
f 1361 2093 2085
f 2085 2093 2094
f 2093 2095 2094
f 2095 2086 2094
f 2086 2085 2094
f 2086 2095 2096
f 2086 2096 2087
f 2087 2096 2097
f 2087 2097 2088
f 2088 2097 2098
f 2088 2098 2089
f 2089 2098 2099
f 2089 2099 2090
f 2090 2099 2100
f 2090 2100 2091
f 2091 2100 2101
f 2100 2102 2101
f 2102 2092 2101
f 2092 2091 2101
f 2092 2102 1469
f 2092 1469 1457
f 1371 1383 2103
f 1371 2103 2093
f 2093 2103 2104
f 2093 2104 2095
f 2095 2104 2105
f 2095 2105 2096
f 2096 2105 2106
f 2096 2106 2097
f 2097 2106 2107
f 2097 2107 2098
f 2098 2107 2108
f 2098 2108 2099
f 2099 2108 2109
f 2099 2109 2100
f 2100 2109 2110
f 2100 2110 2102
f 2102 2110 1479
f 2102 1479 1469
f 1383 1393 2111
f 1383 2111 2103
f 2103 2111 2112
f 2111 2113 2112
f 2113 2104 2112
f 2104 2103 2112
f 2104 2113 2114
f 2104 2114 2105
f 2105 2114 2115
f 2105 2115 2106
f 2106 2115 2116
f 2106 2116 2107
f 2107 2116 2117
f 2107 2117 2108
f 2108 2117 2118
f 2108 2118 2109
f 2109 2118 2119
f 2118 2120 2119
f 2120 2110 2119
f 2110 2109 2119
f 2110 2120 1491
f 2110 1491 1479
f 1393 1405 2121
f 1393 2121 2111
f 2111 2121 2122
f 2111 2122 2113
f 2113 2122 2123
f 2113 2123 2114
f 2114 2123 2124
f 2114 2124 2115
f 2115 2124 2125
f 2115 2125 2116
f 2116 2125 2126
f 2116 2126 2117
f 2117 2126 2127
f 2117 2127 2118
f 2118 2127 2128
f 2118 2128 2120
f 2120 2128 1501
f 2120 1501 1491
f 1405 1415 2129
f 1405 2129 2121
f 2121 2129 2130
f 2121 2130 2122
f 2122 2130 2131
f 2122 2131 2123
f 2123 2131 2132
f 2131 2133 2132
f 2133 2124 2132
f 2124 2123 2132
f 2124 2133 2134
f 2124 2134 2125
f 2125 2134 2135
f 2134 2136 2135
f 2136 2126 2135
f 2126 2125 2135
f 2126 2136 2137
f 2126 2137 2127
f 2127 2137 2138
f 2127 2138 2128
f 2128 2138 1513
f 2128 1513 1501
f 1415 609 717
f 1415 717 2129
f 2129 717 729
f 2129 729 2130
f 2130 729 739
f 2130 739 2131
f 2131 739 751
f 2131 751 2133
f 2133 751 761
f 2133 761 2134
f 2134 761 773
f 2134 773 2136
f 2136 773 783
f 2136 783 2137
f 2137 783 795
f 2137 795 2138
f 2138 795 805
f 2138 805 1513
